<?xml version="1.0" encoding="UTF-8" standalone="no"?>
<svg
   xmlns:dc="http://purl.org/dc/elements/1.1/"
   xmlns:cc="http://creativecommons.org/ns#"
   xmlns:rdf="http://www.w3.org/1999/02/22-rdf-syntax-ns#"
   xmlns:svg="http://www.w3.org/2000/svg"
   xmlns="http://www.w3.org/2000/svg"
   xmlns:sodipodi="http://sodipodi.sourceforge.net/DTD/sodipodi-0.dtd"
   xmlns:inkscape="http://www.inkscape.org/namespaces/inkscape"
   width="62.530071mm"
   height="44.763569mm"
   viewBox="0 0 62.530071 44.763569"
   version="1.1"
   id="svg954"
   inkscape:version="1.0.2 (e86c870879, 2021-01-15)"
   sodipodi:docname="mainlogo.svg">
  <defs
     id="defs948">
    <rect
       x="137.34471"
       y="54.126427"
       width="48.056526"
       height="26.311646"
       id="rect1757" />
    <rect
       x="117.92549"
       y="129.56628"
       width="30.113016"
       height="21.685829"
       id="rect1627" />
    <rect
       x="73.063324"
       y="125.28591"
       width="21.397734"
       height="17.681414"
       id="rect1621" />
  </defs>
  <sodipodi:namedview
     id="base"
     pagecolor="#ffffff"
     bordercolor="#666666"
     borderopacity="1.0"
     inkscape:pageopacity="0.0"
     inkscape:pageshadow="2"
     inkscape:zoom="1.4"
     inkscape:cx="94.602303"
     inkscape:cy="88.691275"
     inkscape:document-units="mm"
     inkscape:current-layer="layer1"
     inkscape:document-rotation="0"
     showgrid="false"
     inkscape:window-width="1920"
     inkscape:window-height="983"
     inkscape:window-x="0"
     inkscape:window-y="27"
     inkscape:window-maximized="1"
     fit-margin-top="0"
     fit-margin-left="0"
     fit-margin-right="0"
     fit-margin-bottom="0" />
  <metadata
     id="metadata951">
    <rdf:RDF>
      <cc:Work
         rdf:about="">
        <dc:format>image/svg+xml</dc:format>
        <dc:type
           rdf:resource="http://purl.org/dc/dcmitype/StillImage" />
        <dc:title></dc:title>
      </cc:Work>
    </rdf:RDF>
  </metadata>
  <g
     inkscape:label="Layer 1"
     inkscape:groupmode="layer"
     id="layer1"
     transform="translate(-72.551677,-73.053781)">
    <path
       style="color:#000000;font-style:normal;font-variant:normal;font-weight:normal;font-stretch:normal;font-size:medium;line-height:normal;font-family:sans-serif;font-variant-ligatures:normal;font-variant-position:normal;font-variant-caps:normal;font-variant-numeric:normal;font-variant-alternates:normal;font-variant-east-asian:normal;font-feature-settings:normal;font-variation-settings:normal;text-indent:0;text-align:start;text-decoration:none;text-decoration-line:none;text-decoration-style:solid;text-decoration-color:#000000;letter-spacing:normal;word-spacing:normal;text-transform:none;writing-mode:lr-tb;direction:ltr;text-orientation:mixed;dominant-baseline:auto;baseline-shift:baseline;text-anchor:start;white-space:normal;shape-padding:0;shape-margin:0;inline-size:0;clip-rule:nonzero;display:inline;overflow:visible;visibility:visible;isolation:auto;mix-blend-mode:normal;color-interpolation:sRGB;color-interpolation-filters:linearRGB;solid-color:#000000;solid-opacity:1;vector-effect:none;fill:#10b981;fill-opacity:1;fill-rule:nonzero;stroke:none;stroke-linecap:butt;stroke-linejoin:miter;stroke-miterlimit:4;stroke-dasharray:none;stroke-dashoffset:0;stroke-opacity:1;color-rendering:auto;image-rendering:auto;shape-rendering:auto;text-rendering:auto;enable-background:accumulate;stop-color:#000000"
       d="m 75.27238,73.053781 c -1.496406,0 -2.720703,1.22625 -2.720703,2.722657 v 20.697265 c 0,1.496409 1.224296,2.722659 2.720703,2.722659 h 13.156246 c 1.49641,0 2.72071,-1.22625 2.72071,-2.722659 V 75.776438 c 0,-1.496407 -1.2243,-2.722657 -2.72071,-2.722657 z m 0,1.316407 h 13.156246 c 0.79002,0 1.4043,0.616231 1.4043,1.40625 v 20.697265 c 0,0.790019 -0.61428,1.406249 -1.4043,1.406249 H 75.27238 c -0.790019,0 -1.404297,-0.61623 -1.404296,-1.406249 V 75.776438 c 0,-0.79002 0.614277,-1.40625 1.404296,-1.40625 z"
       id="rect833" />
    <g
       aria-label="C"
       transform="matrix(1.6934519,0,0,1.6934519,13.622279,-205.56423)"
       id="text845"
       style="font-style:normal;font-variant:normal;font-weight:bold;font-stretch:normal;font-size:10.5833px;line-height:1.25;font-family:FreeMono;-inkscape-font-specification:'FreeMono, Bold';font-variant-ligatures:normal;font-variant-caps:normal;font-variant-numeric:normal;font-variant-east-asian:normal;white-space:pre;shape-inside:url(#rect847);fill:#10b981;fill-opacity:1;stroke:none">
      <path
         d="m 40.596005,174.4204 q 0.497415,0 0.846663,-0.11641 0.359833,-0.127 0.507999,-0.26458 0.148166,-0.14817 0.296332,-0.26459 0.15875,-0.127 0.296333,-0.127 0.211666,0 0.370415,0.15875 0.15875,0.15875 0.15875,0.37042 0,0.45508 -0.730248,0.87841 -0.719664,0.42333 -1.777994,0.42333 -1.344079,0 -2.233077,-0.78316 -0.878413,-0.79375 -0.878413,-2.00024 v -0.6985 q 0,-1.27 0.825497,-2.12724 0.825497,-0.85725 2.05316,-0.85725 0.740831,0 1.502829,0.35983 l 0.105833,0.0423 q 0.179916,-0.254 0.444498,-0.254 0.306916,0 0.412749,0.17992 0.116416,0.17992 0.116416,0.51858 v 0.889 q 0,0.6985 -0.529165,0.6985 -0.190499,0 -0.317499,-0.10584 -0.116416,-0.10583 -0.148166,-0.1905 -0.02117,-0.0952 -0.05292,-0.26458 -0.0635,-0.3175 -0.391582,-0.508 -0.317499,-0.20108 -0.592664,-0.254 -0.275166,-0.0529 -0.507999,-0.0529 -0.804331,0 -1.333496,0.55033 -0.529165,0.53975 -0.529165,1.37583 v 0.67733 q 0,0.79375 0.560915,1.27 0.571499,0.47624 1.523996,0.47624 z"
         style="font-style:normal;font-variant:normal;font-weight:bold;font-stretch:normal;font-size:10.5833px;font-family:FreeMono;-inkscape-font-specification:'FreeMono, Bold';font-variant-ligatures:normal;font-variant-caps:normal;font-variant-numeric:normal;font-variant-east-asian:normal;fill:#10b981;fill-opacity:1"
         id="path858" />
    </g>
    <g
       aria-label="ode"
       transform="translate(18.485414,-45.737603)"
       id="text1619"
       style="font-style:normal;font-variant:normal;font-weight:bold;font-stretch:normal;font-size:10.5833px;line-height:1.25;font-family:FreeMono;-inkscape-font-specification:'FreeMono, Bold';font-variant-ligatures:normal;font-variant-caps:normal;font-variant-numeric:normal;font-variant-east-asian:normal;white-space:pre;shape-inside:url(#rect1621);fill:#10b981;fill-opacity:1;stroke:none;stroke-opacity:1">
      <path
         d="m 76.26924,130.31222 q 1.12183,0 1.904994,0.71967 0.793747,0.71966 0.793747,1.74624 0,1.03717 -0.793747,1.75683 -0.793748,0.70908 -1.936744,0.70908 -1.142996,0 -1.936744,-0.70908 -0.793747,-0.71966 -0.793747,-1.75683 0,-1.04774 0.793747,-1.75683 0.793748,-0.70908 1.968494,-0.70908 z m -0.01058,1.05833 q -0.719664,0 -1.206496,0.40217 -0.486831,0.40216 -0.486831,1.00541 0,0.59267 0.476248,1.00542 0.486832,0.40216 1.195913,0.40216 0.709081,0 1.185329,-0.40216 0.486832,-0.41275 0.486832,-1.00542 0,-0.59266 -0.486832,-0.99483 -0.476248,-0.41275 -1.164163,-0.41275 z"
         style="font-style:normal;font-variant:normal;font-weight:bold;font-stretch:normal;font-size:10.5833px;font-family:FreeMono;-inkscape-font-specification:'FreeMono, Bold';font-variant-ligatures:normal;font-variant-caps:normal;font-variant-numeric:normal;font-variant-east-asian:normal;fill:#10b981;fill-opacity:1;stroke:none;stroke-opacity:1"
         id="path1654" />
      <path
         d="m 85.201529,134.01638 q 0.698497,0 0.698497,0.52916 0,0.52917 -0.698497,0.52917 h -1.227663 v -0.37042 q -0.761998,0.51858 -1.598078,0.51858 -1.18533,0 -1.904994,-0.70908 -0.709081,-0.70908 -0.709081,-1.75682 0,-1.04775 0.709081,-1.74625 0.719664,-0.70908 1.915577,-0.70908 0.920747,0 1.587495,0.52917 v -1.30175 h -0.169333 q -0.338666,0 -0.518582,-0.10583 -0.179916,-0.11642 -0.179916,-0.42334 0,-0.29633 0.179916,-0.40216 0.179916,-0.11642 0.518582,-0.11642 h 1.227663 v 5.53507 z m -1.227663,-1.23825 q 0,-0.635 -0.433915,-1.02658 -0.433916,-0.39158 -1.15358,-0.39158 -0.709081,0 -1.142996,0.41275 -0.423332,0.40216 -0.423332,0.98425 0,0.60324 0.433915,1.00541 0.444498,0.40216 1.142996,0.40216 0.698498,0 1.132413,-0.39158 0.444499,-0.40216 0.444499,-0.99483 z"
         style="font-style:normal;font-variant:normal;font-weight:bold;font-stretch:normal;font-size:10.5833px;font-family:FreeMono;-inkscape-font-specification:'FreeMono, Bold';font-variant-ligatures:normal;font-variant-caps:normal;font-variant-numeric:normal;font-variant-east-asian:normal;fill:#10b981;fill-opacity:1;stroke:none;stroke-opacity:1"
         id="path1656" />
      <path
         d="m 91.583242,134.36563 q 0,0.33866 -0.613831,0.56091 -0.613832,0.21167 -1.15358,0.26458 -0.529165,0.0529 -0.910164,0.0529 -1.227662,0 -2.010827,-0.68791 -0.783164,-0.68792 -0.783164,-1.76741 0,-1.04775 0.783164,-1.75683 0.793748,-0.71967 1.947328,-0.71967 1.185329,0 1.95791,0.71967 0.783164,0.71966 0.783164,1.80974 v 0.41275 h -4.317986 q 0.359832,0.93133 1.735661,0.93133 0.560915,0 1.248829,-0.16933 0.687915,-0.17992 0.825498,-0.17992 0.211666,0 0.359832,0.15875 0.148166,0.14817 0.148166,0.37042 z m -4.286236,-2.04258 h 3.11149 q -0.127,-0.43391 -0.550332,-0.68791 -0.423332,-0.26459 -1.005413,-0.26459 -0.582082,0 -1.015997,0.26459 -0.423332,0.26458 -0.539748,0.68791 z"
         style="font-style:normal;font-variant:normal;font-weight:bold;font-stretch:normal;font-size:10.5833px;font-family:FreeMono;-inkscape-font-specification:'FreeMono, Bold';font-variant-ligatures:normal;font-variant-caps:normal;font-variant-numeric:normal;font-variant-east-asian:normal;fill:#10b981;fill-opacity:1;stroke:none;stroke-opacity:1"
         id="path1658" />
    </g>
    <path
       style="color:#000000;font-style:normal;font-variant:normal;font-weight:normal;font-stretch:normal;font-size:medium;line-height:normal;font-family:sans-serif;font-variant-ligatures:normal;font-variant-position:normal;font-variant-caps:normal;font-variant-numeric:normal;font-variant-alternates:normal;font-variant-east-asian:normal;font-feature-settings:normal;font-variation-settings:normal;text-indent:0;text-align:start;text-decoration:none;text-decoration-line:none;text-decoration-style:solid;text-decoration-color:#000000;letter-spacing:normal;word-spacing:normal;text-transform:none;writing-mode:lr-tb;direction:ltr;text-orientation:mixed;dominant-baseline:auto;baseline-shift:baseline;text-anchor:start;white-space:normal;shape-padding:0;shape-margin:0;inline-size:0;clip-rule:nonzero;display:inline;overflow:visible;visibility:visible;isolation:auto;mix-blend-mode:normal;color-interpolation:sRGB;color-interpolation-filters:linearRGB;solid-color:#000000;solid-opacity:1;vector-effect:none;fill:#10b981;fill-opacity:1;fill-rule:nonzero;stroke:none;stroke-linecap:butt;stroke-linejoin:miter;stroke-miterlimit:4;stroke-dasharray:none;stroke-dashoffset:0;stroke-opacity:1;color-rendering:auto;image-rendering:auto;shape-rendering:auto;text-rendering:auto;enable-background:accumulate;stop-color:#000000"
       d="m 94.693574,91.674768 c -1.496406,0 -2.720703,1.22625 -2.720703,2.722657 v 20.697265 c 0,1.49641 1.224296,2.72266 2.720703,2.72266 h 13.156246 c 1.49641,0 2.72071,-1.22625 2.72071,-2.72266 V 94.397425 c 0,-1.496407 -1.2243,-2.722657 -2.72071,-2.722657 z m 0,1.316407 h 13.156246 c 0.79002,0 1.4043,0.616231 1.4043,1.40625 v 20.697265 c 0,0.79002 -0.61428,1.40625 -1.4043,1.40625 H 94.693574 c -0.790019,0 -1.404297,-0.61623 -1.404296,-1.40625 V 94.397425 c 0,-0.79002 0.614277,-1.40625 1.404296,-1.40625 z"
       id="rect833-7" />
    <g
       aria-label="C"
       transform="matrix(1.6934519,0,0,1.6934519,33.088964,-186.94324)"
       id="text845-6"
       style="font-style:normal;font-variant:normal;font-weight:bold;font-stretch:normal;font-size:10.5833px;line-height:1.25;font-family:FreeMono;-inkscape-font-specification:'FreeMono, Bold';font-variant-ligatures:normal;font-variant-caps:normal;font-variant-numeric:normal;font-variant-east-asian:normal;white-space:pre;shape-inside:url(#rect847);fill:#10b981;fill-opacity:1;stroke:none">
      <path
         d="m 40.596005,174.4204 q 0.497415,0 0.846663,-0.11641 0.359833,-0.127 0.507999,-0.26458 0.148166,-0.14817 0.296332,-0.26459 0.15875,-0.127 0.296333,-0.127 0.211666,0 0.370415,0.15875 0.15875,0.15875 0.15875,0.37042 0,0.45508 -0.730248,0.87841 -0.719664,0.42333 -1.777994,0.42333 -1.344079,0 -2.233077,-0.78316 -0.878413,-0.79375 -0.878413,-2.00024 v -0.6985 q 0,-1.27 0.825497,-2.12724 0.825497,-0.85725 2.05316,-0.85725 0.740831,0 1.502829,0.35983 l 0.105833,0.0423 q 0.179916,-0.254 0.444498,-0.254 0.306916,0 0.412749,0.17992 0.116416,0.17992 0.116416,0.51858 v 0.889 q 0,0.6985 -0.529165,0.6985 -0.190499,0 -0.317499,-0.10584 -0.116416,-0.10583 -0.148166,-0.1905 -0.02117,-0.0952 -0.05292,-0.26458 -0.0635,-0.3175 -0.391582,-0.508 -0.317499,-0.20108 -0.592664,-0.254 -0.275166,-0.0529 -0.507999,-0.0529 -0.804331,0 -1.333496,0.55033 -0.529165,0.53975 -0.529165,1.37583 v 0.67733 q 0,0.79375 0.560915,1.27 0.571499,0.47624 1.523996,0.47624 z"
         style="font-style:normal;font-variant:normal;font-weight:bold;font-stretch:normal;font-size:10.5833px;font-family:FreeMono;-inkscape-font-specification:'FreeMono, Bold';font-variant-ligatures:normal;font-variant-caps:normal;font-variant-numeric:normal;font-variant-east-asian:normal;fill:#10b981;fill-opacity:1"
         id="path858-7" />
    </g>
    <g
       aria-label="ards"
       transform="translate(-7.47132,-31.397635)"
       id="text1625"
       style="font-style:normal;font-variant:normal;font-weight:bold;font-stretch:normal;font-size:10.5833px;line-height:1.25;font-family:FreeMono;-inkscape-font-specification:'FreeMono, Bold';font-variant-ligatures:normal;font-variant-caps:normal;font-variant-numeric:normal;font-variant-east-asian:normal;white-space:pre;shape-inside:url(#rect1627);fill:#10b981;fill-opacity:1;stroke:none;stroke-opacity:1">
      <path
         d="m 118.37028,138.09655 q 0,-0.71967 0.70908,-1.24883 0.70908,-0.53975 1.85208,-0.53975 0.47625,0 1.10066,0.10583 v -0.24341 q 0,-0.51859 -0.98425,-0.51859 -0.43391,0 -0.98424,0.127 -0.55033,0.11642 -0.66675,0.11642 -0.22225,0 -0.37042,-0.14817 -0.14816,-0.15875 -0.14816,-0.39158 0,-0.33866 0.3175,-0.4445 0.89958,-0.3175 1.82032,-0.3175 0.97367,0 1.524,0.41275 0.56091,0.41275 0.56091,1.15358 v 2.13783 h 0.16934 q 0.6985,0 0.6985,0.52916 0,0.52917 -0.6985,0.52917 h -1.23825 v -0.24342 q -0.79375,0.41275 -1.75683,0.41275 -0.78316,0 -1.34408,-0.41275 -0.56091,-0.42333 -0.56091,-1.01599 z m 3.6724,-0.16934 v -0.52916 q -0.66674,-0.11642 -1.17474,-0.11642 -0.53975,0 -0.96308,0.23283 -0.41275,0.23284 -0.41275,0.53975 0,0.17992 0.23283,0.29633 0.23283,0.11642 0.5715,0.11642 0.86783,0 1.74624,-0.53975 z"
         style="font-style:normal;font-variant:normal;font-weight:bold;font-stretch:normal;font-size:10.5833px;font-family:FreeMono;-inkscape-font-specification:'FreeMono, Bold';font-variant-ligatures:normal;font-variant-caps:normal;font-variant-numeric:normal;font-variant-east-asian:normal;fill:#10b981;fill-opacity:1;stroke:none;stroke-opacity:1"
         id="path1640" />
      <path
         d="m 128.98531,134.60406 q 0.4445,0 0.889,0.27516 0.4445,0.27517 0.4445,0.62442 0,0.22225 -0.15875,0.381 -0.15875,0.15875 -0.37042,0.15875 -0.17991,0 -0.41274,-0.1905 -0.23284,-0.1905 -0.41275,-0.1905 -0.254,0 -0.62442,0.23283 -0.35983,0.22225 -1.12183,0.84666 v 1.55575 h 1.47108 q 0.70908,0 0.70908,0.52916 0,0.52917 -0.70908,0.52917 h -3.14324 q -0.6985,0 -0.6985,-0.52917 0,-0.30691 0.17992,-0.41275 0.17992,-0.11641 0.51858,-0.11641 h 0.61383 v -2.50824 h -0.37041 q -0.6985,0 -0.6985,-0.52917 0,-0.52916 0.6985,-0.52916 h 1.42874 v 0.68791 q 0.635,-0.47625 1.00542,-0.64558 0.37041,-0.16933 0.76199,-0.16933 z"
         style="font-style:normal;font-variant:normal;font-weight:bold;font-stretch:normal;font-size:10.5833px;font-family:FreeMono;-inkscape-font-specification:'FreeMono, Bold';font-variant-ligatures:normal;font-variant-caps:normal;font-variant-numeric:normal;font-variant-east-asian:normal;fill:#10b981;fill-opacity:1;stroke:none;stroke-opacity:1"
         id="path1642" />
      <path
         d="m 136.41477,138.29763 q 0.6985,0 0.6985,0.52916 0,0.52917 -0.6985,0.52917 h -1.22766 v -0.37042 q -0.762,0.51858 -1.59808,0.51858 -1.18533,0 -1.90499,-0.70908 -0.70908,-0.70908 -0.70908,-1.75682 0,-1.04775 0.70908,-1.74625 0.71966,-0.70908 1.91558,-0.70908 0.92074,0 1.58749,0.52917 v -1.30175 h -0.16933 q -0.33867,0 -0.51858,-0.10583 -0.17992,-0.11642 -0.17992,-0.42334 0,-0.29633 0.17992,-0.40216 0.17991,-0.11642 0.51858,-0.11642 h 1.22766 v 5.53507 z m -1.22766,-1.23825 q 0,-0.635 -0.43391,-1.02658 -0.43392,-0.39158 -1.15358,-0.39158 -0.70909,0 -1.143,0.41275 -0.42333,0.40216 -0.42333,0.98425 0,0.60324 0.43391,1.00541 0.4445,0.40216 1.143,0.40216 0.6985,0 1.13241,-0.39158 0.4445,-0.40216 0.4445,-0.99483 z"
         style="font-style:normal;font-variant:normal;font-weight:bold;font-stretch:normal;font-size:10.5833px;font-family:FreeMono;-inkscape-font-specification:'FreeMono, Bold';font-variant-ligatures:normal;font-variant-caps:normal;font-variant-numeric:normal;font-variant-east-asian:normal;fill:#10b981;fill-opacity:1;stroke:none;stroke-opacity:1"
         id="path1644" />
      <path
         d="m 142.33082,135.68355 q 0,0.33867 -0.11641,0.51859 -0.10584,0.17991 -0.41275,0.17991 -0.1905,0 -0.3175,-0.11642 -0.127,-0.11641 -0.21167,-0.24341 -0.0741,-0.13758 -0.35983,-0.254 -0.27517,-0.11642 -0.75142,-0.11642 -0.40216,0 -0.73024,0.11642 -0.3175,0.10583 -0.3175,0.254 0,0.21167 0.46566,0.30691 0.46567,0.0847 1.16417,0.1905 0.69849,0.10584 1.06891,0.3175 0.34925,0.1905 0.53975,0.508 0.20108,0.3175 0.20108,0.68792 0,0.64558 -0.66675,1.06891 -0.66675,0.42333 -1.69333,0.42333 -0.92074,0 -1.56632,-0.30691 -0.15875,0.127 -0.33867,0.127 -0.53975,0 -0.53975,-0.6985 v -0.34925 q 0,-0.70908 0.53975,-0.70908 0.40217,0 0.53975,0.46566 0.45508,0.41275 1.32291,0.41275 0.508,0 0.86783,-0.13758 0.37042,-0.13758 0.37042,-0.3175 0,-0.41275 -1.3335,-0.55033 -1.11124,-0.11642 -1.60866,-0.45508 -0.49741,-0.33867 -0.49741,-0.96308 0,-0.635 0.61383,-1.03717 0.61383,-0.41275 1.56633,-0.41275 0.77258,0 1.36524,0.27517 0.11642,-0.27517 0.33867,-0.27517 0.49741,0 0.49741,0.6985 z"
         style="font-style:normal;font-variant:normal;font-weight:bold;font-stretch:normal;font-size:10.5833px;font-family:FreeMono;-inkscape-font-specification:'FreeMono, Bold';font-variant-ligatures:normal;font-variant-caps:normal;font-variant-numeric:normal;font-variant-east-asian:normal;fill:#10b981;fill-opacity:1;stroke:none;stroke-opacity:1"
         id="path1646" />
    </g>
  </g>
</svg>
