<?xml version="1.0" encoding="UTF-8" standalone="no"?>
<svg
   xmlns:dc="http://purl.org/dc/elements/1.1/"
   xmlns:cc="http://creativecommons.org/ns#"
   xmlns:rdf="http://www.w3.org/1999/02/22-rdf-syntax-ns#"
   xmlns:svg="http://www.w3.org/2000/svg"
   xmlns="http://www.w3.org/2000/svg"
   xmlns:sodipodi="http://sodipodi.sourceforge.net/DTD/sodipodi-0.dtd"
   xmlns:inkscape="http://www.inkscape.org/namespaces/inkscape"
   width="299.22946"
   height="299.22946"
   viewBox="0 0 79.171127 79.171131"
   version="1.1"
   id="svg3784"
   inkscape:version="1.0.2 (e86c870879, 2021-01-15)"
   sodipodi:docname="application.svg">
  <defs
     id="defs3778">
    <rect
       x="15.935685"
       y="30.728769"
       width="47.668591"
       height="26.557129"
       id="rect4351" />
  </defs>
  <sodipodi:namedview
     id="base"
     pagecolor="#ffffff"
     bordercolor="#666666"
     borderopacity="1.0"
     inkscape:pageopacity="0.0"
     inkscape:pageshadow="2"
     inkscape:zoom="0.98994949"
     inkscape:cx="43.206011"
     inkscape:cy="136.3877"
     inkscape:document-units="mm"
     inkscape:current-layer="layer1"
     inkscape:document-rotation="0"
     showgrid="false"
     fit-margin-top="5"
     lock-margins="true"
     units="px"
     fit-margin-left="5"
     fit-margin-right="5"
     fit-margin-bottom="5"
     inkscape:window-width="1920"
     inkscape:window-height="983"
     inkscape:window-x="0"
     inkscape:window-y="27"
     inkscape:window-maximized="1" />
  <metadata
     id="metadata3781">
    <rdf:RDF>
      <cc:Work
         rdf:about="">
        <dc:format>image/svg+xml</dc:format>
        <dc:type
           rdf:resource="http://purl.org/dc/dcmitype/StillImage" />
        <dc:title></dc:title>
      </cc:Work>
    </rdf:RDF>
  </metadata>
  <g
     inkscape:label="Layer 1"
     inkscape:groupmode="layer"
     id="layer1"
     transform="translate(-73.977086,-73.977086)">
    <rect
       style="fill:none;stroke:none;stroke-width:0.600001"
       id="rect4347"
       width="76.525291"
       height="76.525291"
       x="75.300003"
       y="75.300003"
       ry="1.2826101" />
    <g
       aria-label="run.exe
"
       id="text4349"
       style="font-style:normal;font-variant:normal;font-weight:bold;font-stretch:normal;font-size:10.5833px;line-height:1.25;font-family:FreeMono;-inkscape-font-specification:'FreeMono, Bold';font-variant-ligatures:normal;font-variant-caps:normal;font-variant-numeric:normal;font-variant-east-asian:normal;white-space:pre;shape-inside:url(#rect4351);fill:#4d4d4d;fill-opacity:1;stroke:none"
       transform="matrix(1,0,0,1.6918063,75.381055,48.899285)">
      <path
         d="m 20.645115,35.766166 q 0.444499,0 0.888997,0.275166 0.444499,0.275166 0.444499,0.624415 0,0.222249 -0.15875,0.380999 -0.158749,0.158749 -0.370415,0.158749 -0.179916,0 -0.412749,-0.190499 -0.232832,-0.1905 -0.412748,-0.1905 -0.254,0 -0.624415,0.232833 -0.359832,0.222249 -1.12183,0.846664 v 1.555745 h 1.471079 q 0.709081,0 0.709081,0.529165 0,0.529165 -0.709081,0.529165 h -3.14324 q -0.698498,0 -0.698498,-0.529165 0,-0.306916 0.179916,-0.412749 0.179916,-0.116416 0.518582,-0.116416 h 0.613831 v -2.508242 h -0.370415 q -0.698498,0 -0.698498,-0.529165 0,-0.529165 0.698498,-0.529165 h 1.428745 v 0.687914 q 0.634998,-0.476248 1.005414,-0.645581 0.370415,-0.169333 0.761997,-0.169333 z"
         style="font-style:normal;font-variant:normal;font-weight:bold;font-stretch:normal;font-size:10.5833px;font-family:FreeMono;-inkscape-font-specification:'FreeMono, Bold';font-variant-ligatures:normal;font-variant-caps:normal;font-variant-numeric:normal;font-variant-east-asian:normal;fill:#4d4d4d"
         id="path4355" />
      <path
         d="m 26.148415,36.951496 q -0.317499,0 -0.455082,-0.15875 -0.137583,-0.169332 -0.137583,-0.370415 0,-0.529165 0.698498,-0.529165 h 1.428745 v 3.566572 q 0.645582,0 0.645582,0.529165 0,0.529165 -0.698498,0.529165 h -1.005414 v -0.507999 q -0.391582,0.370416 -0.709081,0.507999 -0.306915,0.137583 -0.740831,0.137583 -0.83608,0 -1.365245,-0.465665 -0.518582,-0.476249 -0.518582,-1.322913 v -1.915577 h -0.285749 q -0.264583,0 -0.423332,-0.148166 -0.15875,-0.148167 -0.15875,-0.380999 0,-0.306916 0.179917,-0.412749 0.179916,-0.116416 0.518581,-0.116416 h 1.227663 v 2.942157 q 0,0.761998 0.93133,0.761998 0.402166,0 0.666748,-0.137583 0.264583,-0.148166 0.677331,-0.582082 v -1.92616 h -0.370415 z"
         style="font-style:normal;font-variant:normal;font-weight:bold;font-stretch:normal;font-size:10.5833px;font-family:FreeMono;-inkscape-font-specification:'FreeMono, Bold';font-variant-ligatures:normal;font-variant-caps:normal;font-variant-numeric:normal;font-variant-east-asian:normal;fill:#4d4d4d"
         id="path4357" />
      <path
         d="m 29.577388,40.518068 q -0.698498,0 -0.698498,-0.529165 0,-0.529165 0.698498,-0.529165 h 0.0635 v -2.508242 q -0.645582,-0.02117 -0.645582,-0.529165 0,-0.529165 0.709081,-0.529165 h 0.994831 v 0.507998 q 0.380998,-0.359832 0.698497,-0.497415 0.317499,-0.148166 0.751415,-0.148166 0.825497,0 1.354662,0.465665 0.529165,0.465665 0.529165,1.312329 v 1.926161 q 0.645581,0 0.645581,0.529165 0,0.529165 -0.698497,0.529165 h -0.941914 q -0.709081,0 -0.709081,-0.529165 0,-0.529165 0.645581,-0.529165 V 37.57591 q 0,-0.761997 -0.952497,-0.761997 -0.370415,0 -0.666748,0.158749 -0.285749,0.15875 -0.656164,0.560915 v 1.926161 h 0.0635 q 0.698498,0 0.698498,0.529165 0,0.529165 -0.698498,0.529165 z"
         style="font-style:normal;font-variant:normal;font-weight:bold;font-stretch:normal;font-size:10.5833px;font-family:FreeMono;-inkscape-font-specification:'FreeMono, Bold';font-variant-ligatures:normal;font-variant-caps:normal;font-variant-numeric:normal;font-variant-east-asian:normal;fill:#4d4d4d"
         id="path4359" />
      <path
         d="m 38.255677,40.676817 h -0.190499 q -0.28575,0 -0.497415,-0.201082 -0.201083,-0.211666 -0.201083,-0.497415 0,-0.28575 0.201083,-0.486832 0.211665,-0.211666 0.497415,-0.211666 h 0.190499 q 0.296332,0 0.497415,0.201082 0.201083,0.201083 0.201083,0.497416 0,0.296332 -0.201083,0.497415 -0.201083,0.201082 -0.497415,0.201082 z"
         style="font-style:normal;font-variant:normal;font-weight:bold;font-stretch:normal;font-size:10.5833px;font-family:FreeMono;-inkscape-font-specification:'FreeMono, Bold';font-variant-ligatures:normal;font-variant-caps:normal;font-variant-numeric:normal;font-variant-east-asian:normal;fill:#4d4d4d"
         id="path4361" />
      <path
         d="m 47.156216,39.808987 q 0,0.338665 -0.613831,0.560915 -0.613831,0.211666 -1.15358,0.264582 -0.529165,0.05292 -0.910163,0.05292 -1.227663,0 -2.010827,-0.687915 -0.783165,-0.687914 -0.783165,-1.767411 0,-1.047747 0.783165,-1.756828 0.793747,-0.719664 1.947327,-0.719664 1.185329,0 1.95791,0.719664 0.783164,0.719665 0.783164,1.809745 V 38.69774 H 42.83823 q 0.359832,0.931331 1.735661,0.931331 0.560915,0 1.24883,-0.169333 0.687914,-0.179916 0.825497,-0.179916 0.211666,0 0.359832,0.158749 0.148166,0.148166 0.148166,0.370416 z M 42.86998,37.76641 h 3.11149 q -0.127,-0.433915 -0.550332,-0.687915 -0.423331,-0.264582 -1.005413,-0.264582 -0.582081,0 -1.015997,0.264582 -0.423332,0.264583 -0.539748,0.687915 z"
         style="font-style:normal;font-variant:normal;font-weight:bold;font-stretch:normal;font-size:10.5833px;font-family:FreeMono;-inkscape-font-specification:'FreeMono, Bold';font-variant-ligatures:normal;font-variant-caps:normal;font-variant-numeric:normal;font-variant-east-asian:normal;fill:#4d4d4d"
         id="path4363" />
      <path
         d="m 49.780859,35.893166 q 0.698498,0 0.698498,0.518582 0,0.306915 -0.275166,0.486831 l 0.645581,0.518582 0.645582,-0.529165 q -0.275166,-0.190499 -0.275166,-0.455082 0,-0.539748 0.698498,-0.539748 h 0.96308 q 0.709081,0 0.709081,0.529165 0,0.476248 -0.560915,0.529165 l -1.396996,1.164163 1.608662,1.344079 q 0.571498,0.03175 0.571498,0.529165 0,0.529165 -0.698498,0.529165 h -1.185329 q -0.709081,0 -0.709081,-0.539748 0,-0.402166 0.423332,-0.518582 l -0.793748,-0.645581 -0.772581,0.645581 q 0.402166,0.169333 0.402166,0.518582 0,0.539748 -0.698498,0.539748 h -1.174746 q -0.698498,0 -0.698498,-0.529165 0,-0.497415 0.571498,-0.529165 l 1.534579,-1.354663 -1.354663,-1.153579 q -0.550331,-0.05292 -0.550331,-0.529165 0,-0.529165 0.698497,-0.529165 z"
         style="font-style:normal;font-variant:normal;font-weight:bold;font-stretch:normal;font-size:10.5833px;font-family:FreeMono;-inkscape-font-specification:'FreeMono, Bold';font-variant-ligatures:normal;font-variant-caps:normal;font-variant-numeric:normal;font-variant-east-asian:normal;fill:#4d4d4d"
         id="path4365" />
      <path
         d="m 59.856143,39.808987 q 0,0.338665 -0.613832,0.560915 -0.613831,0.211666 -1.153579,0.264582 -0.529165,0.05292 -0.910164,0.05292 -1.227663,0 -2.010827,-0.687915 -0.783164,-0.687914 -0.783164,-1.767411 0,-1.047747 0.783164,-1.756828 0.793747,-0.719664 1.947327,-0.719664 1.18533,0 1.957911,0.719664 0.783164,0.719665 0.783164,1.809745 v 0.412748 h -4.317987 q 0.359833,0.931331 1.735662,0.931331 0.560914,0 1.248829,-0.169333 0.687914,-0.179916 0.825497,-0.179916 0.211666,0 0.359833,0.158749 0.148166,0.148166 0.148166,0.370416 z M 55.569906,37.76641 h 3.11149 q -0.126999,-0.433915 -0.550331,-0.687915 -0.423332,-0.264582 -1.005414,-0.264582 -0.582081,0 -1.015996,0.264582 -0.423332,0.264583 -0.539749,0.687915 z"
         style="font-style:normal;font-variant:normal;font-weight:bold;font-stretch:normal;font-size:10.5833px;font-family:FreeMono;-inkscape-font-specification:'FreeMono, Bold';font-variant-ligatures:normal;font-variant-caps:normal;font-variant-numeric:normal;font-variant-east-asian:normal;fill:#4d4d4d"
         id="path4367" />
    </g>
  </g>
</svg>
