<?xml version="1.0" encoding="UTF-8" standalone="no"?>
<svg
   xmlns:dc="http://purl.org/dc/elements/1.1/"
   xmlns:cc="http://creativecommons.org/ns#"
   xmlns:rdf="http://www.w3.org/1999/02/22-rdf-syntax-ns#"
   xmlns:svg="http://www.w3.org/2000/svg"
   xmlns="http://www.w3.org/2000/svg"
   xmlns:sodipodi="http://sodipodi.sourceforge.net/DTD/sodipodi-0.dtd"
   xmlns:inkscape="http://www.inkscape.org/namespaces/inkscape"
   width="348.89545"
   height="348.89545"
   viewBox="0 0 92.311918 92.311923"
   version="1.1"
   id="svg4394"
   inkscape:version="1.0.2 (e86c870879, 2021-01-15)"
   sodipodi:docname="crypto.svg">
  <defs
     id="defs4388" />
  <sodipodi:namedview
     id="base"
     pagecolor="#ffffff"
     bordercolor="#666666"
     borderopacity="1.0"
     inkscape:pageopacity="0.0"
     inkscape:pageshadow="2"
     inkscape:zoom="0.98994949"
     inkscape:cx="261.11549"
     inkscape:cy="138.24111"
     inkscape:document-units="mm"
     inkscape:current-layer="layer1"
     inkscape:document-rotation="0"
     showgrid="false"
     units="px"
     fit-margin-top="5"
     lock-margins="true"
     fit-margin-left="5"
     fit-margin-right="5"
     fit-margin-bottom="5"
     inkscape:window-width="1920"
     inkscape:window-height="983"
     inkscape:window-x="0"
     inkscape:window-y="27"
     inkscape:window-maximized="1" />
  <metadata
     id="metadata4391">
    <rdf:RDF>
      <cc:Work
         rdf:about="">
        <dc:format>image/svg+xml</dc:format>
        <dc:type
           rdf:resource="http://purl.org/dc/dcmitype/StillImage" />
        <dc:title></dc:title>
      </cc:Work>
    </rdf:RDF>
  </metadata>
  <g
     inkscape:label="Layer 1"
     inkscape:groupmode="layer"
     id="layer1"
     transform="translate(-56.294743,-104.94248)">
    <rect
       style="fill:none;stroke:none;stroke-width:0.600001"
       id="rect4957"
       width="89.066086"
       height="89.066086"
       x="57.91766"
       y="106.5654"
       ry="1.2826101" />
    <path
       style="fill:none;stroke:#000000;stroke-width:0.264583px;stroke-linecap:butt;stroke-linejoin:miter;stroke-opacity:1"
       d="m -35.632897,145.6237 c -5.34681,26.63434 22.850281,27.01078 22.850281,27.01078"
       id="path4961" />
    <g
       id="g5011"
       transform="translate(0.33132592,0.88958585)">
      <g
         id="g4976">
        <path
           id="circle4963"
           style="fill:none;stroke:#4d4d4d;stroke-width:0.600001"
           d="m 95.853576,128.5112 a 22.62017,22.62017 0 0 0 -17.223755,21.96661 22.62017,22.62017 0 0 0 22.619809,22.62033 22.62017,22.62017 0 0 0 7.43469,-1.25677 22.62017,22.62017 0 0 1 -5.39554,0.65319 22.62017,22.62017 0 0 1 -22.619807,-22.62033 22.62017,22.62017 0 0 1 15.184603,-21.36303 z" />
        <circle
           style="fill:none;stroke:#4d4d4d;stroke-width:0.600001"
           id="circle4971"
           cx="102.98876"
           cy="149.93974"
           r="22.620171" />
      </g>
      <path
         style="fill:none;stroke:#4d4d4d;stroke-width:0.264583px;stroke-linecap:butt;stroke-linejoin:miter;stroke-opacity:1"
         d="m 78.795564,148.01155 1.809263,-0.52699"
         id="path4978" />
      <path
         style="fill:#4d4d4d;stroke:#4d4d4d;stroke-width:0.264583px;stroke-linecap:butt;stroke-linejoin:miter;stroke-opacity:1"
         d="m 78.66155,153.21494 2.287368,-0.68336"
         id="path4980" />
      <path
         style="fill:#4d4d4d;stroke:#4d4d4d;stroke-width:0.264583px;stroke-linecap:butt;stroke-linejoin:miter;stroke-opacity:1"
         d="m 80.035542,158.76946 1.929707,-0.90445"
         id="path4982" />
      <path
         style="fill:#4d4d4d;stroke:#4d4d4d;stroke-width:0.264583px;stroke-linecap:butt;stroke-linejoin:miter;stroke-opacity:1"
         d="m 83.575876,164.57965 1.519049,-1.03123"
         id="path4984" />
      <path
         style="fill:#4d4d4d;stroke:#4d4d4d;stroke-width:0.264583px;stroke-linecap:butt;stroke-linejoin:miter;stroke-opacity:1"
         d="m 88.983192,169.46946 1.212802,-1.25307"
         id="path4986" />
      <path
         style="fill:#4d4d4d;stroke:#4d4d4d;stroke-width:0.264583px;stroke-linecap:butt;stroke-linejoin:miter;stroke-opacity:1"
         d="m 93.757352,171.66056 0.53236,-1.20881"
         id="path4988" />
      <path
         style="fill:#4d4d4d;stroke:#4d4d4d;stroke-width:0.264583px;stroke-linecap:butt;stroke-linejoin:miter;stroke-opacity:1"
         d="m 80.947227,140.7744 1.437548,0.3281"
         id="path4990" />
      <g
         aria-label="$"
         transform="matrix(0.78062726,-0.25478237,0.20916844,0.95086074,98.506342,37.676558)"
         id="text4994"
         style="font-style:normal;font-weight:normal;font-size:27.4064px;line-height:1.25;font-family:sans-serif;fill:#4d4d4d;fill-opacity:1;stroke:none;stroke-width:0.68516">
        <path
           d="m -22.419856,123.49782 h -1.338203 l -0.01338,-4.02799 q -1.405113,-0.0268 -2.810227,-0.32117 -1.405113,-0.30778 -2.823608,-0.90997 v -2.40877 q 1.364967,0.85645 2.756698,1.29806 1.405114,0.42822 2.890519,0.4416 v -6.1022 q -2.957429,-0.48175 -4.309014,-1.63261 -1.338203,-1.15085 -1.338203,-3.15816 0,-2.18127 1.458641,-3.43918 1.458642,-1.25791 4.188576,-1.44526 v -3.144778 h 1.338203 v 3.104628 q 1.244529,0.0535 2.408766,0.26764 1.164237,0.20073 2.274945,0.56205 v 2.34186 q -1.110708,-0.56205 -2.288327,-0.86984 -1.164237,-0.30778 -2.395384,-0.36131 v 5.71413 q 3.037721,0.46837 4.469599,1.67275 1.431877,1.20438 1.431877,3.29198 0,2.26156 -1.525551,3.573 -1.51217,1.29806 -4.375925,1.49879 z m -1.338203,-14.33215 v -5.48663 q -1.552316,0.17396 -2.368619,0.88321 -0.816304,0.70925 -0.816304,1.88687 0,1.15085 0.749393,1.79319 0.762776,0.64234 2.43553,0.92336 z m 1.338203,2.56935 v 5.79442 q 1.699518,-0.2275 2.555968,-0.96351 0.869832,-0.73601 0.869832,-1.94039 0,-1.17762 -0.829686,-1.87349 -0.816304,-0.69586 -2.596114,-1.01703 z"
           style="fill:#4d4d4d;stroke-width:0.68516"
           id="path4996" />
      </g>
    </g>
  </g>
</svg>
