<?xml version="1.0" encoding="UTF-8" standalone="no"?>
<svg
   xmlns:dc="http://purl.org/dc/elements/1.1/"
   xmlns:cc="http://creativecommons.org/ns#"
   xmlns:rdf="http://www.w3.org/1999/02/22-rdf-syntax-ns#"
   xmlns:svg="http://www.w3.org/2000/svg"
   xmlns="http://www.w3.org/2000/svg"
   xmlns:sodipodi="http://sodipodi.sourceforge.net/DTD/sodipodi-0.dtd"
   xmlns:inkscape="http://www.inkscape.org/namespaces/inkscape"
   width="293.46457"
   height="293.46457"
   viewBox="0 0 77.645832 77.645836"
   version="1.1"
   id="svg3133"
   inkscape:version="1.0.2 (e86c870879, 2021-01-15)"
   sodipodi:docname="framework.svg">
  <defs
     id="defs3127" />
  <sodipodi:namedview
     id="base"
     pagecolor="#ffffff"
     bordercolor="#666666"
     borderopacity="1.0"
     inkscape:pageopacity="0.0"
     inkscape:pageshadow="2"
     inkscape:zoom="1.4"
     inkscape:cx="180.08488"
     inkscape:cy="147.24144"
     inkscape:document-units="mm"
     inkscape:current-layer="layer1"
     inkscape:document-rotation="0"
     showgrid="false"
     units="px"
     fit-margin-top="5"
     lock-margins="true"
     fit-margin-left="5"
     fit-margin-right="5"
     fit-margin-bottom="5"
     inkscape:window-width="1920"
     inkscape:window-height="983"
     inkscape:window-x="0"
     inkscape:window-y="27"
     inkscape:window-maximized="1" />
  <metadata
     id="metadata3130">
    <rdf:RDF>
      <cc:Work
         rdf:about="">
        <dc:format>image/svg+xml</dc:format>
        <dc:type
           rdf:resource="http://purl.org/dc/dcmitype/StillImage" />
        <dc:title></dc:title>
      </cc:Work>
    </rdf:RDF>
  </metadata>
  <g
     inkscape:label="Layer 1"
     inkscape:groupmode="layer"
     id="layer1"
     transform="translate(-43.465925,-75.488492)">
    <rect
       style="fill:none;stroke:none;stroke-width:0.865"
       id="rect3698"
       width="75"
       height="75"
       x="44.788841"
       y="76.811409"
       ry="1.2826101" />
    <g
       id="g3712"
       transform="matrix(-0.74553354,-0.28817942,0.28817942,-0.74553354,78.0675,213.56812)"
       style="stroke:#4d4d4d">
      <circle
         style="fill:none;stroke:#4d4d4d;stroke-width:0.603999;stroke-miterlimit:4;stroke-dasharray:none"
         id="circle3708"
         cx="16.066355"
         cy="90.015831"
         r="5.7786884" />
      <path
         style="fill:none;stroke:#4d4d4d;stroke-width:0.337587;stroke-linecap:butt;stroke-linejoin:miter;stroke-miterlimit:4;stroke-dasharray:none;stroke-opacity:1"
         d="m 18.433666,95.377886 c 7.582006,13.132424 8.279521,14.340554 8.279521,14.340554"
         id="path3710" />
    </g>
    <g
       id="g3718"
       transform="matrix(-0.26027781,-0.75035397,-0.75035397,0.26027781,182.89377,112.50526)"
       style="stroke:#4d4d4d">
      <circle
         style="fill:none;stroke:#4d4d4d;stroke-width:0.603999;stroke-miterlimit:4;stroke-dasharray:none"
         id="circle3714"
         cx="16.066355"
         cy="90.015831"
         r="5.7786884" />
      <path
         style="fill:none;stroke:#4d4d4d;stroke-width:0.337587;stroke-linecap:butt;stroke-linejoin:miter;stroke-miterlimit:4;stroke-dasharray:none;stroke-opacity:1"
         d="m 18.433666,95.377886 c 7.582006,13.132424 8.279521,14.340554 8.279521,14.340554"
         id="path3716" />
    </g>
    <g
       id="g3724"
       transform="matrix(0.71298705,-0.3487205,0.3487205,0.71298705,16.780474,33.136568)"
       style="stroke:#4d4d4d">
      <circle
         style="fill:none;stroke:#4d4d4d;stroke-width:0.603999;stroke-miterlimit:4;stroke-dasharray:none"
         id="circle3720"
         cx="16.066355"
         cy="90.015831"
         r="5.7786884" />
      <path
         style="fill:none;stroke:#4d4d4d;stroke-width:0.337587;stroke-linecap:butt;stroke-linejoin:miter;stroke-miterlimit:4;stroke-dasharray:none;stroke-opacity:1"
         d="m 18.433666,95.377886 c 7.582006,13.132424 8.279521,14.340554 8.279521,14.340554"
         id="path3722" />
    </g>
    <g
       id="g3730"
       transform="rotate(-90,57.719318,91.641309)"
       style="stroke:#4d4d4d">
      <circle
         style="fill:none;stroke:#4d4d4d;stroke-width:0.603999;stroke-miterlimit:4;stroke-dasharray:none"
         id="circle3726"
         cx="16.066355"
         cy="90.015831"
         r="5.7786884" />
      <path
         style="fill:none;stroke:#4d4d4d;stroke-width:0.337587;stroke-linecap:butt;stroke-linejoin:miter;stroke-miterlimit:4;stroke-dasharray:none;stroke-opacity:1"
         d="m 18.433666,95.377886 c 7.582006,13.132424 8.279521,14.340554 8.279521,14.340554"
         id="path3728" />
    </g>
    <g
       id="g3706"
       transform="matrix(0.38366973,0.66453546,-0.66453546,0.38366973,158.45253,45.951828)"
       style="stroke:#4d4d4d">
      <circle
         style="fill:none;stroke:#4d4d4d;stroke-width:0.603999;stroke-miterlimit:4;stroke-dasharray:none"
         id="path3700"
         cx="16.066355"
         cy="90.015831"
         r="5.7786884" />
      <path
         style="fill:none;stroke:#4d4d4d;stroke-width:0.337587;stroke-linecap:butt;stroke-linejoin:miter;stroke-miterlimit:4;stroke-dasharray:none;stroke-opacity:1"
         d="m 18.433666,95.377886 c 7.582006,13.132424 8.279521,14.340554 8.279521,14.340554"
         id="path3702" />
    </g>
    <circle
       style="fill:none;stroke:#666666;stroke-width:0.665001;stroke-miterlimit:4;stroke-dasharray:none"
       id="path3732"
       cx="83.926064"
       cy="111.90241"
       r="13.569771" />
    <g
       aria-label="SRC"
       id="text3744"
       style="font-style:normal;font-variant:normal;font-weight:bold;font-stretch:normal;font-size:10.5833px;line-height:1.25;font-family:FreeMono;-inkscape-font-specification:'FreeMono, Bold';font-variant-ligatures:normal;font-variant-caps:normal;font-variant-numeric:normal;font-variant-east-asian:normal;fill:#4d4d4d;fill-opacity:1;stroke:none;stroke-width:0.264583"
       transform="matrix(0.8018046,0,0,0.8018046,-29.90293,39.831894)">
      <path
         d="m 137.15927,87.023804 q 0.3175,0 0.41275,0.179916 0.10583,0.179916 0.10583,0.518581 v 0.931331 q 0,0.709081 -0.51858,0.709081 -0.0847,0 -0.15875,-0.01058 -0.0635,-0.02117 -0.11642,-0.04233 -0.0423,-0.03175 -0.0847,-0.07408 -0.0423,-0.05292 -0.0635,-0.08467 -0.0212,-0.03175 -0.0423,-0.09525 -0.0212,-0.0635 -0.0318,-0.08467 0,-0.03175 -0.0212,-0.09525 -0.0106,-0.07408 -0.0106,-0.08467 -0.0741,-0.317499 -0.42333,-0.507999 -0.33866,-0.201083 -0.83608,-0.201083 -0.49741,0 -0.84666,0.232833 -0.34925,0.232833 -0.34925,0.571498 0,0.359832 0.34925,0.560915 0.34925,0.1905 0.81491,0.253999 0.46567,0.05292 1.03716,0.211666 0.5715,0.148166 0.89958,0.412749 0.62442,0.497415 0.62442,1.322912 0,0.825498 -0.66675,1.333496 -0.66675,0.507999 -1.75683,0.507999 -0.87841,0 -1.65099,-0.412749 -0.21167,0.253999 -0.42333,0.253999 -0.53975,0 -0.53975,-0.698498 v -0.698497 q 0,-0.349249 0.11641,-0.518582 0.11642,-0.179916 0.41275,-0.179916 0.0953,0 0.16934,0.02117 0.0847,0.02117 0.13758,0.0635 0.0529,0.04233 0.0847,0.08467 0.0423,0.03175 0.0635,0.09525 0.0317,0.0635 0.0423,0.09525 0.0106,0.03175 0.0212,0.08467 0.0212,0.05292 0.0212,0.0635 0.0741,0.285749 0.508,0.486832 0.43392,0.201083 0.96308,0.201083 0.59266,0 0.99483,-0.232833 0.40217,-0.232833 0.40217,-0.571498 0,-0.317499 -0.3175,-0.507999 -0.30692,-0.190499 -0.71967,-0.253999 -0.40216,-0.0635 -0.95249,-0.190499 -0.53975,-0.127 -0.86784,-0.306916 -0.40216,-0.232832 -0.63499,-0.624414 -0.23284,-0.391583 -0.23284,-0.846664 0,-0.804331 0.65617,-1.333496 0.65616,-0.539748 1.64041,-0.539748 0.81491,0 1.37583,0.349248 0.0847,-0.201082 0.16933,-0.275165 0.0847,-0.07408 0.24342,-0.07408 z"
         style="font-style:normal;font-variant:normal;font-weight:bold;font-stretch:normal;font-size:10.5833px;font-family:FreeMono;-inkscape-font-specification:'FreeMono, Bold';font-variant-ligatures:normal;font-variant-caps:normal;font-variant-numeric:normal;font-variant-east-asian:normal;fill:#4d4d4d;stroke-width:0.264583"
         id="path3753" />
      <path
         d="m 144.30298,92.283703 q 0.6985,0 0.6985,0.529165 0,0.529165 -0.6985,0.529165 h -0.83608 q -0.39158,-0.761997 -1.00542,-1.492245 -0.60324,-0.740831 -0.94191,-0.857247 h -1.016 v 1.291162 h 0.37042 q 0.6985,0 0.6985,0.529165 0,0.529165 -0.6985,0.529165 h -1.5875 q -0.69849,0 -0.69849,-0.529165 0,-0.529165 0.69849,-0.529165 h 0.15875 V 88.2303 h -0.15875 q -0.69849,0 -0.69849,-0.529165 0,-0.306916 0.17991,-0.412749 0.17992,-0.116416 0.51858,-0.116416 h 2.36008 q 1.02658,0 1.67216,0.529165 0.65617,0.518581 0.65617,1.354662 0,0.973664 -1.143,1.598078 0.68791,0.603248 1.3335,1.629828 z m -3.79941,-2.349492 h 0.80434 q 0.66674,0 1.10066,-0.253999 0.4445,-0.264583 0.4445,-0.656165 0,-0.338665 -0.32809,-0.560915 Q 142.1969,88.2303 141.6889,88.2303 h -1.18533 z"
         style="font-style:normal;font-variant:normal;font-weight:bold;font-stretch:normal;font-size:10.5833px;font-family:FreeMono;-inkscape-font-specification:'FreeMono, Bold';font-variant-ligatures:normal;font-variant-caps:normal;font-variant-numeric:normal;font-variant-east-asian:normal;fill:#4d4d4d;stroke-width:0.264583"
         id="path3755" />
      <path
         d="m 148.3987,92.43187 q 0.49741,0 0.84666,-0.116417 0.35984,-0.126999 0.508,-0.264582 0.14817,-0.148166 0.29633,-0.264583 0.15875,-0.126999 0.29634,-0.126999 0.21166,0 0.37041,0.158749 0.15875,0.15875 0.15875,0.370416 0,0.455082 -0.73025,0.878414 -0.71966,0.423332 -1.77799,0.423332 -1.34408,0 -2.23308,-0.783165 -0.87841,-0.793747 -0.87841,-2.000243 v -0.698498 q 0,-1.269996 0.8255,-2.127243 0.82549,-0.857247 2.05316,-0.857247 0.74083,0 1.50283,0.359832 l 0.10583,0.04233 q 0.17991,-0.253999 0.4445,-0.253999 0.30691,0 0.41275,0.179916 0.11641,0.179916 0.11641,0.518581 v 0.888998 q 0,0.698497 -0.52916,0.698497 -0.1905,0 -0.3175,-0.105833 -0.11642,-0.105833 -0.14817,-0.190499 -0.0212,-0.09525 -0.0529,-0.264582 -0.0635,-0.317499 -0.39159,-0.507999 -0.3175,-0.201083 -0.59266,-0.253999 -0.27517,-0.05292 -0.508,-0.05292 -0.80433,0 -1.3335,0.550332 -0.52916,0.539748 -0.52916,1.375829 v 0.677331 q 0,0.793748 0.56091,1.269996 0.5715,0.476249 1.524,0.476249 z"
         style="font-style:normal;font-variant:normal;font-weight:bold;font-stretch:normal;font-size:10.5833px;font-family:FreeMono;-inkscape-font-specification:'FreeMono, Bold';font-variant-ligatures:normal;font-variant-caps:normal;font-variant-numeric:normal;font-variant-east-asian:normal;fill:#4d4d4d;stroke-width:0.264583"
         id="path3757" />
    </g>
  </g>
</svg>
