<?xml version="1.0" encoding="UTF-8" standalone="no"?>
<svg
   xmlns:dc="http://purl.org/dc/elements/1.1/"
   xmlns:cc="http://creativecommons.org/ns#"
   xmlns:rdf="http://www.w3.org/1999/02/22-rdf-syntax-ns#"
   xmlns:svg="http://www.w3.org/2000/svg"
   xmlns="http://www.w3.org/2000/svg"
   xmlns:sodipodi="http://sodipodi.sourceforge.net/DTD/sodipodi-0.dtd"
   xmlns:inkscape="http://www.inkscape.org/namespaces/inkscape"
   width="293.46454"
   height="293.46454"
   viewBox="0 0 77.645824 77.645828"
   version="1.1"
   id="svg3358"
   inkscape:version="1.0.2 (e86c870879, 2021-01-15)"
   sodipodi:docname="language.svg">
  <defs
     id="defs3352">
    <rect
       x="155.65359"
       y="111.86155"
       width="101.33806"
       height="52.194672"
       id="rect3925" />
  </defs>
  <sodipodi:namedview
     id="base"
     pagecolor="#ffffff"
     bordercolor="#666666"
     borderopacity="1.0"
     inkscape:pageopacity="0.0"
     inkscape:pageshadow="2"
     inkscape:zoom="1.4"
     inkscape:cx="154.57708"
     inkscape:cy="144.75737"
     inkscape:document-units="mm"
     inkscape:current-layer="layer1"
     inkscape:document-rotation="0"
     showgrid="false"
     units="px"
     lock-margins="true"
     fit-margin-top="5"
     fit-margin-left="5"
     fit-margin-right="5"
     fit-margin-bottom="5"
     inkscape:window-width="1920"
     inkscape:window-height="983"
     inkscape:window-x="0"
     inkscape:window-y="27"
     inkscape:window-maximized="1" />
  <metadata
     id="metadata3355">
    <rdf:RDF>
      <cc:Work
         rdf:about="">
        <dc:format>image/svg+xml</dc:format>
        <dc:type
           rdf:resource="http://purl.org/dc/dcmitype/StillImage" />
        <dc:title></dc:title>
      </cc:Work>
    </rdf:RDF>
  </metadata>
  <g
     inkscape:label="Layer 1"
     inkscape:groupmode="layer"
     id="layer1"
     transform="translate(-33.820037,-71.308166)">
    <g
       aria-label="(defn lang)"
       transform="matrix(0.91267597,0,0,0.91267597,-101.31817,1.1896161)"
       id="text3923"
       style="font-style:normal;font-variant:normal;font-weight:bold;font-stretch:normal;font-size:10.5833px;line-height:1.25;font-family:FreeMono;-inkscape-font-specification:'FreeMono, Bold';font-variant-ligatures:normal;font-variant-caps:normal;font-variant-numeric:normal;font-variant-east-asian:normal;white-space:pre;shape-inside:url(#rect3925);fill:#4d4d4d;fill-opacity:1;stroke:none">
      <path
         d="m 158.44829,119.07914 q 0,-0.73025 0.30691,-1.7145 0.30692,-0.98424 0.74083,-1.69332 0.4445,-0.70909 0.78317,-0.70909 0.23283,0 0.381,0.15875 0.15875,0.14817 0.15875,0.35984 0,0.15875 -0.1905,0.49741 -0.17992,0.32808 -0.41275,0.6985 -0.22225,0.37041 -0.41275,1.03716 -0.17992,0.65617 -0.17992,1.397 0,1.54516 1.06892,3.28082 0.127,0.20108 0.127,0.35983 0,0.21167 -0.15875,0.35984 -0.14817,0.15875 -0.381,0.15875 -0.33867,0 -0.77258,-0.67734 -0.43392,-0.67733 -0.75142,-1.68274 -0.30691,-1.00541 -0.30691,-1.83091 z"
         style="fill:#4d4d4d"
         id="path3937" />
      <path
         d="m 167.79333,120.59255 q 0.69849,0 0.69849,0.52917 0,0.52916 -0.69849,0.52916 h -1.22767 v -0.37042 q -0.76199,0.51859 -1.59808,0.51859 -1.18533,0 -1.90499,-0.70908 -0.70908,-0.70909 -0.70908,-1.75683 0,-1.04775 0.70908,-1.74625 0.71966,-0.70908 1.91558,-0.70908 0.92074,0 1.58749,0.52917 v -1.30175 h -0.16933 q -0.33867,0 -0.51858,-0.10583 -0.17992,-0.11642 -0.17992,-0.42333 0,-0.29634 0.17992,-0.40217 0.17991,-0.11642 0.51858,-0.11642 h 1.22766 v 5.53507 z m -1.22767,-1.23825 q 0,-0.63499 -0.43391,-1.02658 -0.43392,-0.39158 -1.15358,-0.39158 -0.70908,0 -1.143,0.41275 -0.42333,0.40217 -0.42333,0.98425 0,0.60325 0.43391,1.00541 0.4445,0.40217 1.143,0.40217 0.6985,0 1.13241,-0.39159 0.4445,-0.40216 0.4445,-0.99483 z"
         style="fill:#4d4d4d"
         id="path3939" />
      <path
         d="m 174.17504,120.9418 q 0,0.33866 -0.61383,0.56091 -0.61383,0.21167 -1.15358,0.26459 -0.52917,0.0529 -0.91017,0.0529 -1.22766,0 -2.01082,-0.68791 -0.78317,-0.68792 -0.78317,-1.76741 0,-1.04775 0.78317,-1.75683 0.79374,-0.71966 1.94732,-0.71966 1.18533,0 1.95791,0.71966 0.78317,0.71966 0.78317,1.80974 v 0.41275 h -4.31799 q 0.35983,0.93133 1.73566,0.93133 0.56092,0 1.24883,-0.16933 0.68792,-0.17992 0.8255,-0.17992 0.21167,0 0.35983,0.15875 0.14817,0.14817 0.14817,0.37042 z m -4.28624,-2.04258 h 3.11149 q -0.127,-0.43391 -0.55033,-0.68791 -0.42333,-0.26458 -1.00541,-0.26458 -0.58208,0 -1.016,0.26458 -0.42333,0.26458 -0.53975,0.68791 z"
         style="fill:#4d4d4d"
         id="path3941" />
      <path
         d="m 178.85284,115.05748 q 1.89441,0 1.89441,0.66675 0,0.23284 -0.14816,0.39158 -0.13759,0.14817 -0.34925,0.14817 -0.0529,0 -0.58209,-0.0741 -0.51858,-0.0741 -0.91016,-0.0741 -0.889,0 -0.889,0.51859 v 0.39158 h 1.59808 q 0.6985,0 0.6985,0.52916 0,0.52917 -0.6985,0.52917 h -1.59808 v 2.50824 h 1.47108 q 0.6985,0 0.6985,0.52917 0,0.52916 -0.6985,0.52916 h -3.14324 q -0.6985,0 -0.6985,-0.52916 0,-0.30692 0.17992,-0.41275 0.17992,-0.11642 0.51858,-0.11642 h 0.61383 v -2.50824 h -0.49741 q -0.6985,0 -0.6985,-0.52917 0,-0.3175 0.17992,-0.42333 0.1905,-0.10583 0.52916,-0.10583 h 0.48683 v -0.39158 q 0,-0.73025 0.55034,-1.15358 0.55033,-0.42334 1.49224,-0.42334 z"
         style="fill:#4d4d4d"
         id="path3943" />
      <path
         d="m 181.99607,121.65088 q -0.6985,0 -0.6985,-0.52916 0,-0.52917 0.6985,-0.52917 h 0.0635 v -2.50824 q -0.64559,-0.0212 -0.64559,-0.52917 0,-0.52916 0.70908,-0.52916 h 0.99483 v 0.508 q 0.381,-0.35984 0.6985,-0.49742 0.3175,-0.14816 0.75142,-0.14816 0.82549,0 1.35466,0.46566 0.52916,0.46567 0.52916,1.31233 v 1.92616 q 0.64559,0 0.64559,0.52917 0,0.52916 -0.6985,0.52916 h -0.94192 q -0.70908,0 -0.70908,-0.52916 0,-0.52917 0.64558,-0.52917 v -1.88383 q 0,-0.76199 -0.95249,-0.76199 -0.37042,0 -0.66675,0.15874 -0.28575,0.15875 -0.65617,0.56092 v 1.92616 h 0.0635 q 0.6985,0 0.6985,0.52917 0,0.52916 -0.6985,0.52916 z"
         style="fill:#4d4d4d"
         id="path3945" />
      <path
         d="m 194.86532,115.58665 q 0,-0.30692 0.17992,-0.41275 0.17992,-0.11642 0.52917,-0.11642 h 1.88382 v 5.53507 h 1.29117 q 0.69849,0 0.69849,0.52917 0,0.52916 -0.69849,0.52916 h -3.64066 q -0.6985,0 -0.6985,-0.52916 0,-0.30692 0.17992,-0.41275 0.17991,-0.11642 0.51858,-0.11642 h 1.29116 v -4.47674 h -0.82549 q -0.70909,0 -0.70909,-0.52916 z"
         style="fill:#4d4d4d"
         id="path3947" />
      <path
         d="m 200.54854,120.39147 q 0,-0.71967 0.70908,-1.24883 0.70908,-0.53975 1.85208,-0.53975 0.47625,0 1.10066,0.10583 v -0.24341 q 0,-0.51858 -0.98424,-0.51858 -0.43392,0 -0.98425,0.127 -0.55033,0.11641 -0.66675,0.11641 -0.22225,0 -0.37041,-0.14816 -0.14817,-0.15875 -0.14817,-0.39159 0,-0.33866 0.3175,-0.4445 0.89958,-0.31749 1.82033,-0.31749 0.97366,0 1.52399,0.41274 0.56092,0.41275 0.56092,1.15358 v 2.13783 h 0.16933 q 0.6985,0 0.6985,0.52917 0,0.52916 -0.6985,0.52916 h -1.23825 v -0.24342 q -0.79375,0.41275 -1.75683,0.41275 -0.78316,0 -1.34407,-0.41275 -0.56092,-0.42333 -0.56092,-1.01599 z m 3.67241,-0.16934 v -0.52916 q -0.66675,-0.11642 -1.17475,-0.11642 -0.53975,0 -0.96308,0.23284 -0.41275,0.23283 -0.41275,0.53974 0,0.17992 0.23283,0.29634 0.23284,0.11641 0.5715,0.11641 0.86783,0 1.74625,-0.53975 z"
         style="fill:#4d4d4d"
         id="path3949" />
      <path
         d="m 207.39592,121.65088 q -0.6985,0 -0.6985,-0.52916 0,-0.52917 0.6985,-0.52917 h 0.0635 v -2.50824 q -0.64558,-0.0212 -0.64558,-0.52917 0,-0.52916 0.70908,-0.52916 h 0.99483 v 0.508 q 0.381,-0.35984 0.6985,-0.49742 0.3175,-0.14816 0.75141,-0.14816 0.8255,0 1.35466,0.46566 0.52917,0.46567 0.52917,1.31233 v 1.92616 q 0.64558,0 0.64558,0.52917 0,0.52916 -0.6985,0.52916 h -0.94191 q -0.70908,0 -0.70908,-0.52916 0,-0.52917 0.64558,-0.52917 v -1.88383 q 0,-0.76199 -0.9525,-0.76199 -0.37041,0 -0.66675,0.15874 -0.28574,0.15875 -0.65616,0.56092 v 1.92616 h 0.0635 q 0.6985,0 0.6985,0.52917 0,0.52916 -0.6985,0.52916 z"
         style="fill:#4d4d4d"
         id="path3951" />
      <path
         d="m 214.29622,123.23838 q 0,-0.30692 0.17991,-0.42334 0.17992,-0.10583 0.51858,-0.10583 h 1.15358 q 0.46567,0 0.73025,-0.22225 0.26458,-0.22225 0.26458,-0.62441 v -0.58209 q -0.69849,0.51859 -1.49224,0.51859 -1.06892,0 -1.78858,-0.6985 -0.70908,-0.70908 -0.70908,-1.75683 0,-1.05833 0.70908,-1.75683 0.71966,-0.70908 1.78858,-0.70908 0.86783,0 1.49224,0.52917 v -0.381 h 1.22767 q 0.69849,0 0.69849,0.52916 0,0.52917 -0.69849,0.52917 h -0.16934 v 3.77824 q 0,0.83608 -0.58208,1.36524 -0.5715,0.53975 -1.43933,0.53975 h -1.18533 q -0.69849,0 -0.69849,-0.52916 z m 1.37582,-5.30224 q -0.60324,0 -1.03716,0.41275 -0.42333,0.40217 -0.42333,0.98425 0,0.58208 0.42333,0.99483 0.43392,0.41275 1.03716,0.41275 0.60325,0 1.03717,-0.40217 0.43391,-0.41275 0.43391,-0.98425 0,-0.59266 -0.43391,-1.00541 -0.42333,-0.41275 -1.03717,-0.41275 z"
         style="fill:#4d4d4d"
         id="path3953" />
      <path
         d="m 220.39218,122.75154 q 0,-0.15875 0.17992,-0.49741 0.1905,-0.32808 0.41275,-0.6985 0.23283,-0.37041 0.41274,-1.02658 0.1905,-0.66675 0.1905,-1.40758 0,-1.54516 -1.06891,-3.28082 -0.127,-0.20108 -0.127,-0.35983 0,-0.21167 0.14817,-0.35984 0.15875,-0.15875 0.39158,-0.15875 0.33866,0 0.77258,0.67734 0.43391,0.67733 0.74083,1.68274 0.3175,1.00541 0.3175,1.83091 0,0.73025 -0.30692,1.7145 -0.29633,0.97366 -0.74083,1.68274 -0.43391,0.71967 -0.78316,0.71967 -0.23283,0 -0.39158,-0.15875 -0.14817,-0.14817 -0.14817,-0.35984 z"
         style="fill:#4d4d4d"
         id="path3955" />
    </g>
  </g>
</svg>
