<?xml version="1.0" encoding="UTF-8" standalone="no"?>
<svg
   xmlns:dc="http://purl.org/dc/elements/1.1/"
   xmlns:cc="http://creativecommons.org/ns#"
   xmlns:rdf="http://www.w3.org/1999/02/22-rdf-syntax-ns#"
   xmlns:svg="http://www.w3.org/2000/svg"
   xmlns="http://www.w3.org/2000/svg"
   xmlns:sodipodi="http://sodipodi.sourceforge.net/DTD/sodipodi-0.dtd"
   xmlns:inkscape="http://www.inkscape.org/namespaces/inkscape"
   width="293.4646"
   height="293.46457"
   viewBox="0 0 77.64584 77.645836"
   version="1.1"
   id="svg8"
   inkscape:version="1.0.2 (e86c870879, 2021-01-15)"
   sodipodi:docname="other.svg">
  <defs
     id="defs2">
    <rect
       x="164.57542"
       y="78.064735"
       width="48.403126"
       height="49.897896"
       id="rect837" />
  </defs>
  <sodipodi:namedview
     id="base"
     pagecolor="#ffffff"
     bordercolor="#666666"
     borderopacity="1.0"
     inkscape:pageopacity="0.0"
     inkscape:pageshadow="2"
     inkscape:zoom="0.7"
     inkscape:cx="82.382017"
     inkscape:cy="244.0935"
     inkscape:document-units="mm"
     inkscape:current-layer="layer1"
     inkscape:document-rotation="0"
     showgrid="false"
     units="px"
     lock-margins="true"
     fit-margin-top="5"
     fit-margin-left="5"
     fit-margin-right="5"
     fit-margin-bottom="5"
     inkscape:window-width="1920"
     inkscape:window-height="983"
     inkscape:window-x="0"
     inkscape:window-y="27"
     inkscape:window-maximized="1" />
  <metadata
     id="metadata5">
    <rdf:RDF>
      <cc:Work
         rdf:about="">
        <dc:format>image/svg+xml</dc:format>
        <dc:type
           rdf:resource="http://purl.org/dc/dcmitype/StillImage" />
        <dc:title></dc:title>
      </cc:Work>
    </rdf:RDF>
  </metadata>
  <g
     inkscape:label="Layer 1"
     inkscape:groupmode="layer"
     id="layer1"
     transform="translate(-47.513138,-68.752297)">
    <g
       id="g847">
      <rect
         style="fill:none;stroke:#4d4d4d;stroke-width:1.08259"
         id="rect833"
         width="73.917419"
         height="73.917412"
         x="49.37735"
         y="70.616508"
         ry="0.22280578" />
      <g
         aria-label="?"
         id="text835"
         style="font-style:normal;font-variant:normal;font-weight:bold;font-stretch:normal;font-size:10.5833px;line-height:1.25;font-family:FreeMono;-inkscape-font-specification:'FreeMono, Bold';font-variant-ligatures:normal;font-variant-caps:normal;font-variant-numeric:normal;font-variant-east-asian:normal;white-space:pre;shape-inside:url(#rect837);fill:#4d4d4d;fill-opacity:1;stroke:none"
         transform="matrix(6.6087587,0,0,6.6087587,-1024.0565,-453.70209)">
        <path
           d="m 166.8912,83.146022 q 0,0.698498 -0.52917,0.698498 -0.52916,0 -0.52916,-0.698498 v -0.83608 q 0.76199,-0.370416 1.20649,-0.497415 0.4445,-0.127 0.9525,-0.127 0.98425,0 1.59808,0.560915 0.61383,0.550332 0.61383,1.439329 0,0.645581 -0.39158,1.068913 -0.381,0.423332 -1.34408,0.846664 -0.0635,0.571498 -0.52917,0.571498 -0.52916,0 -0.52916,-0.698498 v -0.592664 q 1.01599,-0.391582 1.37583,-0.645582 0.35983,-0.264582 0.35983,-0.603248 0,-0.391582 -0.3175,-0.634998 -0.3175,-0.253999 -0.8255,-0.253999 -0.58208,0 -1.11124,0.253999 z m 1.13241,5.027068 h -0.17992 q -0.29633,0 -0.508,-0.201083 -0.20108,-0.211666 -0.20108,-0.497415 0,-0.285749 0.20108,-0.486832 0.21167,-0.211666 0.508,-0.211666 h 0.17992 q 0.29633,0 0.49741,0.201083 0.20109,0.201083 0.20109,0.497415 0,0.296332 -0.20109,0.497415 -0.20108,0.201083 -0.49741,0.201083 z"
           style="font-style:normal;font-variant:normal;font-weight:bold;font-stretch:normal;font-size:10.5833px;font-family:FreeMono;-inkscape-font-specification:'FreeMono, Bold';font-variant-ligatures:normal;font-variant-caps:normal;font-variant-numeric:normal;font-variant-east-asian:normal;fill:#4d4d4d"
           id="path841" />
      </g>
    </g>
  </g>
</svg>
