<?xml version="1.0" encoding="UTF-8" standalone="no"?>
<svg
   xmlns:dc="http://purl.org/dc/elements/1.1/"
   xmlns:cc="http://creativecommons.org/ns#"
   xmlns:rdf="http://www.w3.org/1999/02/22-rdf-syntax-ns#"
   xmlns:svg="http://www.w3.org/2000/svg"
   xmlns="http://www.w3.org/2000/svg"
   xmlns:sodipodi="http://sodipodi.sourceforge.net/DTD/sodipodi-0.dtd"
   xmlns:inkscape="http://www.inkscape.org/namespaces/inkscape"
   width="250.73653"
   height="250.4641"
   viewBox="0 0 66.340704 66.268621"
   version="1.1"
   id="svg1077"
   inkscape:version="1.0.2 (e86c870879, 2021-01-15)"
   sodipodi:docname="videogame.svg">
  <defs
     id="defs1071" />
  <sodipodi:namedview
     id="base"
     pagecolor="#ffffff"
     bordercolor="#666666"
     borderopacity="1.0"
     inkscape:pageopacity="0.0"
     inkscape:pageshadow="2"
     inkscape:zoom="1.2271424"
     inkscape:cx="189.46102"
     inkscape:cy="109.00808"
     inkscape:document-units="mm"
     inkscape:current-layer="layer1"
     inkscape:document-rotation="0"
     showgrid="false"
     fit-margin-top="5"
     lock-margins="true"
     fit-margin-left="5"
     fit-margin-right="5"
     fit-margin-bottom="5"
     inkscape:window-width="1920"
     inkscape:window-height="983"
     inkscape:window-x="0"
     inkscape:window-y="27"
     inkscape:window-maximized="1"
     units="px" />
  <metadata
     id="metadata1074">
    <rdf:RDF>
      <cc:Work
         rdf:about="">
        <dc:format>image/svg+xml</dc:format>
        <dc:type
           rdf:resource="http://purl.org/dc/dcmitype/StillImage" />
        <dc:title></dc:title>
      </cc:Work>
    </rdf:RDF>
  </metadata>
  <g
     inkscape:label="Layer 1"
     inkscape:groupmode="layer"
     id="layer1"
     transform="translate(-73.677082,-73.677082)">
    <rect
       style="fill:none;stroke:none;stroke-width:0.7"
       id="rect1640"
       width="62.922791"
       height="62.922791"
       x="75.349998"
       y="75.349998"
       ry="5.2758179" />
    <g
       id="g1818"
       transform="translate(70.624832,22.031045)">
      <g
         id="g1814"
         transform="translate(-7.8591392,-10.010746)">
        <path
           style="color:#000000;font-style:normal;font-variant:normal;font-weight:normal;font-stretch:normal;font-size:medium;line-height:normal;font-family:sans-serif;font-variant-ligatures:normal;font-variant-position:normal;font-variant-caps:normal;font-variant-numeric:normal;font-variant-alternates:normal;font-variant-east-asian:normal;font-feature-settings:normal;font-variation-settings:normal;text-indent:0;text-align:start;text-decoration:none;text-decoration-line:none;text-decoration-style:solid;text-decoration-color:#000000;letter-spacing:normal;word-spacing:normal;text-transform:none;writing-mode:lr-tb;direction:ltr;text-orientation:mixed;dominant-baseline:auto;baseline-shift:baseline;text-anchor:start;white-space:normal;shape-padding:0;shape-margin:0;inline-size:0;clip-rule:nonzero;display:inline;overflow:visible;visibility:visible;opacity:1;isolation:auto;mix-blend-mode:normal;color-interpolation:sRGB;color-interpolation-filters:linearRGB;solid-color:#000000;solid-opacity:1;vector-effect:none;fill:#666666;fill-opacity:1;fill-rule:nonzero;stroke:none;stroke-linecap:butt;stroke-linejoin:miter;stroke-miterlimit:4;stroke-dasharray:none;stroke-dashoffset:0;stroke-opacity:1;color-rendering:auto;image-rendering:auto;shape-rendering:auto;text-rendering:auto;enable-background:accumulate;stop-color:#000000;stop-opacity:1"
           d="m 33.283203,68.519531 c -1.970306,0 -3.759885,0.604183 -5.072265,1.601563 -1.312381,0.99738 -2.152344,2.405444 -2.152344,3.972656 0,1.567212 0.839963,2.977229 2.152344,3.974609 1.31238,0.997381 3.101959,1.601563 5.072265,1.601563 1.970307,0 3.761839,-0.604182 5.074219,-1.601563 1.31238,-0.99738 2.152344,-2.407397 2.152344,-3.974609 -10e-7,-1.567212 -0.839964,-2.975276 -2.152344,-3.972656 -1.31238,-0.99738 -3.103913,-1.601563 -5.074219,-1.601563 z m 0,0.699219 c 1.826553,0 3.474574,0.56539 4.650391,1.458984 1.175816,0.893595 1.874999,2.097698 1.875,3.416016 0,1.318318 -0.699184,2.522421 -1.875,3.416016 -1.175817,0.893594 -2.823837,1.458984 -4.650391,1.458984 -1.826553,0 -3.472621,-0.56539 -4.648437,-1.458984 -1.175816,-0.893595 -1.875,-2.097698 -1.875,-3.416016 0,-1.318318 0.699184,-2.522421 1.875,-3.416016 1.175816,-0.893594 2.821884,-1.458984 4.648437,-1.458984 z"
           id="path1808" />
        <path
           style="color:#000000;font-style:normal;font-variant:normal;font-weight:normal;font-stretch:normal;font-size:medium;line-height:normal;font-family:sans-serif;font-variant-ligatures:normal;font-variant-position:normal;font-variant-caps:normal;font-variant-numeric:normal;font-variant-alternates:normal;font-variant-east-asian:normal;font-feature-settings:normal;font-variation-settings:normal;text-indent:0;text-align:start;text-decoration:none;text-decoration-line:none;text-decoration-style:solid;text-decoration-color:#000000;letter-spacing:normal;word-spacing:normal;text-transform:none;writing-mode:lr-tb;direction:ltr;text-orientation:mixed;dominant-baseline:auto;baseline-shift:baseline;text-anchor:start;white-space:normal;shape-padding:0;shape-margin:0;inline-size:0;clip-rule:nonzero;display:inline;overflow:visible;visibility:visible;opacity:1;isolation:auto;mix-blend-mode:normal;color-interpolation:sRGB;color-interpolation-filters:linearRGB;solid-color:#000000;solid-opacity:1;vector-effect:none;fill:#666666;fill-opacity:1;fill-rule:nonzero;stroke:none;stroke-linecap:butt;stroke-linejoin:miter;stroke-miterlimit:4;stroke-dasharray:none;stroke-dashoffset:0;stroke-opacity:1;color-rendering:auto;image-rendering:auto;shape-rendering:auto;text-rendering:auto;enable-background:accumulate;stop-color:#000000;stop-opacity:1"
           d="m 29.693359,78.509766 c 0,0 -0.249023,3.323015 -0.90625,6.976562 -0.328613,1.826774 -0.760392,3.734741 -1.30664,5.335938 -0.546249,1.601196 -1.229818,2.887431 -1.929688,3.46289 l 0.542969,0.660156 c 0.949531,-0.78074 1.626616,-2.180658 2.195312,-3.847656 0.568697,-1.666997 1.006564,-3.608218 1.339844,-5.460937 0.666561,-3.705438 0.916016,-7.064453 0.916016,-7.064453 z"
           id="path1810" />
        <path
           style="color:#000000;font-style:normal;font-variant:normal;font-weight:normal;font-stretch:normal;font-size:medium;line-height:normal;font-family:sans-serif;font-variant-ligatures:normal;font-variant-position:normal;font-variant-caps:normal;font-variant-numeric:normal;font-variant-alternates:normal;font-variant-east-asian:normal;font-feature-settings:normal;font-variation-settings:normal;text-indent:0;text-align:start;text-decoration:none;text-decoration-line:none;text-decoration-style:solid;text-decoration-color:#000000;letter-spacing:normal;word-spacing:normal;text-transform:none;writing-mode:lr-tb;direction:ltr;text-orientation:mixed;dominant-baseline:auto;baseline-shift:baseline;text-anchor:start;white-space:normal;shape-padding:0;shape-margin:0;inline-size:0;clip-rule:nonzero;display:inline;overflow:visible;visibility:visible;opacity:1;isolation:auto;mix-blend-mode:normal;color-interpolation:sRGB;color-interpolation-filters:linearRGB;solid-color:#000000;solid-opacity:1;vector-effect:none;fill:#666666;fill-opacity:1;fill-rule:nonzero;stroke:none;stroke-linecap:butt;stroke-linejoin:miter;stroke-miterlimit:4;stroke-dasharray:none;stroke-dashoffset:0;stroke-opacity:1;color-rendering:auto;image-rendering:auto;shape-rendering:auto;text-rendering:auto;enable-background:accumulate;stop-color:#000000;stop-opacity:1"
           d="m 36.318359,78.925781 -0.853515,0.06445 c 0,0 0.251408,3.357062 0.917968,7.0625 0.333281,1.852719 0.769194,3.79394 1.337891,5.460938 0.568697,1.666997 1.247735,3.066915 2.197266,3.847656 l 0.542969,-0.660156 c -0.69987,-0.575459 -1.383439,-1.861694 -1.929688,-3.462891 -0.546249,-1.601197 -0.978027,-3.509164 -1.306641,-5.335937 -0.657226,-3.653547 -0.90625,-6.976563 -0.90625,-6.976563 z"
           id="path1812" />
      </g>
      <path
         id="path1816"
         style="color:#000000;font-style:normal;font-variant:normal;font-weight:normal;font-stretch:normal;font-size:medium;line-height:normal;font-family:sans-serif;font-variant-ligatures:normal;font-variant-position:normal;font-variant-caps:normal;font-variant-numeric:normal;font-variant-alternates:normal;font-variant-east-asian:normal;font-feature-settings:normal;font-variation-settings:normal;text-indent:0;text-align:start;text-decoration:none;text-decoration-line:none;text-decoration-style:solid;text-decoration-color:#000000;letter-spacing:normal;word-spacing:normal;text-transform:none;writing-mode:lr-tb;direction:ltr;text-orientation:mixed;dominant-baseline:auto;baseline-shift:baseline;text-anchor:start;white-space:normal;shape-padding:0;shape-margin:0;inline-size:0;clip-rule:nonzero;display:inline;overflow:visible;visibility:visible;opacity:1;isolation:auto;mix-blend-mode:normal;color-interpolation:sRGB;color-interpolation-filters:linearRGB;solid-color:#000000;solid-opacity:1;vector-effect:none;fill:#666666;fill-opacity:1;fill-rule:nonzero;stroke:none;stroke-width:3.77953;stroke-linecap:butt;stroke-linejoin:miter;stroke-miterlimit:4;stroke-dasharray:none;stroke-dashoffset:0;stroke-opacity:1;color-rendering:auto;image-rendering:auto;shape-rendering:auto;text-rendering:auto;enable-background:accumulate;stop-color:#000000;stop-opacity:1"
         d="m 72.880859,281.75 c -9.749613,1.89519 -18.510892,5.10457 -25.679687,9.32031 -11.906408,7.00179 -19.560547,16.8959 -19.560547,28.04492 -4e-6,11.14903 7.654139,21.04119 19.560547,28.04297 11.906404,7.00179 28.183766,11.25782 46.136719,11.25782 17.952959,0 34.224449,-4.25603 46.130859,-11.25782 11.90641,-7.00178 19.56836,-16.89394 19.56836,-28.04297 0,-11.14902 -7.66195,-21.04313 -19.56836,-28.04492 -5.69824,-3.35095 -22.77408,-10.35529 -30.17739,-12.28279 l 10.3688,7.64607 c 6.82025,1.84522 12.97379,4.37206 18.16992,7.42774 11.2873,6.6377 17.97461,15.58977 17.97461,25.2539 0,9.66414 -6.68731,18.61425 -17.97461,25.25196 -11.2873,6.63771 -27.05275,10.81445 -44.492189,10.81445 -17.439444,0 -33.210749,-4.17674 -44.498047,-10.81445 -11.287295,-6.63771 -17.97461,-15.58782 -17.97461,-25.25196 0,-9.66413 6.687315,-18.6162 17.97461,-25.2539 6.647282,-3.90906 22.815789,-12.39681 31.998241,-14.24838 z"
         transform="scale(0.26458333)"
         sodipodi:nodetypes="csssssssccssssssscc" />
    </g>
    <g
       id="g1788"
       transform="matrix(0.65520938,0,0,0.65520938,105.95944,51.584588)">
      <circle
         style="fill:none;stroke:#666666;stroke-width:0.855001;stroke-miterlimit:4;stroke-dasharray:none"
         id="circle1776"
         cx="30.24428"
         cy="94.918823"
         r="13.463798" />
      <g
         id="g1786"
         style="fill:none;stroke:#666666;stroke-width:2.05825;stroke-miterlimit:4;stroke-dasharray:none"
         transform="matrix(0.25895789,0,0,0.25895789,40.59159,54.817296)">
        <path
           style="fill:none;stroke:#666666;stroke-width:2.05825;stroke-linecap:butt;stroke-linejoin:miter;stroke-miterlimit:4;stroke-dasharray:none;stroke-opacity:1"
           d="m -11.939142,118.42144 c 0,0 5.159714,19.13525 -1.668872,25.56651"
           id="path1778" />
        <path
           style="fill:none;stroke:#666666;stroke-width:2.05825;stroke-linecap:butt;stroke-linejoin:miter;stroke-miterlimit:4;stroke-dasharray:none;stroke-opacity:1"
           d="m -37.505648,116.75257 c 0,0 5.159714,19.13525 -1.668872,25.56651"
           id="path1780" />
        <path
           style="fill:none;stroke:#666666;stroke-width:2.05825;stroke-linecap:butt;stroke-linejoin:miter;stroke-miterlimit:4;stroke-dasharray:none;stroke-opacity:1"
           d="m -37.505648,116.75257 c 0,0 19.135246,-5.15972 25.566506,1.66887"
           id="path1782" />
        <path
           style="fill:none;stroke:#666666;stroke-width:2.05825;stroke-linecap:butt;stroke-linejoin:miter;stroke-miterlimit:4;stroke-dasharray:none;stroke-opacity:1"
           d="m -39.17452,142.31908 c 0,0 19.135246,-5.15972 25.566506,1.66887"
           id="path1784" />
      </g>
    </g>
    <g
       id="g1802"
       transform="matrix(-0.498803,0,0,0.498803,135.47717,50.551548)">
      <circle
         style="fill:none;stroke:#666666;stroke-width:0.855001;stroke-miterlimit:4;stroke-dasharray:none"
         id="circle1790"
         cx="30.24428"
         cy="94.918823"
         r="13.463798" />
      <g
         id="g1800"
         style="fill:none;stroke:#666666;stroke-width:2.05825;stroke-miterlimit:4;stroke-dasharray:none"
         transform="matrix(0.25895789,0,0,0.25895789,40.59159,54.817296)">
        <path
           style="fill:none;stroke:#666666;stroke-width:2.05825;stroke-linecap:butt;stroke-linejoin:miter;stroke-miterlimit:4;stroke-dasharray:none;stroke-opacity:1"
           d="m -11.939142,118.42144 c 0,0 5.159714,19.13525 -1.668872,25.56651"
           id="path1792" />
        <path
           style="fill:none;stroke:#666666;stroke-width:2.05825;stroke-linecap:butt;stroke-linejoin:miter;stroke-miterlimit:4;stroke-dasharray:none;stroke-opacity:1"
           d="m -37.505648,116.75257 c 0,0 5.159714,19.13525 -1.668872,25.56651"
           id="path1794" />
        <path
           style="fill:none;stroke:#666666;stroke-width:2.05825;stroke-linecap:butt;stroke-linejoin:miter;stroke-miterlimit:4;stroke-dasharray:none;stroke-opacity:1"
           d="m -37.505648,116.75257 c 0,0 19.135246,-5.15972 25.566506,1.66887"
           id="path1796" />
        <path
           style="fill:none;stroke:#666666;stroke-width:2.05825;stroke-linecap:butt;stroke-linejoin:miter;stroke-miterlimit:4;stroke-dasharray:none;stroke-opacity:1"
           d="m -39.17452,142.31908 c 0,0 19.135246,-5.15972 25.566506,1.66887"
           id="path1798" />
      </g>
    </g>
    <g
       id="g1774"
       transform="matrix(0.76775688,0,0,0.76775688,85.454979,53.348675)">
      <circle
         style="fill:none;stroke:#666666;stroke-width:0.855001;stroke-miterlimit:4;stroke-dasharray:none"
         id="path1748"
         cx="30.24428"
         cy="94.918823"
         r="13.463798" />
      <g
         id="g1766"
         style="fill:none;stroke:#666666;stroke-width:2.05825;stroke-miterlimit:4;stroke-dasharray:none"
         transform="matrix(0.25895789,0,0,0.25895789,40.59159,54.817296)">
        <path
           style="fill:none;stroke:#666666;stroke-width:2.05825;stroke-linecap:butt;stroke-linejoin:miter;stroke-miterlimit:4;stroke-dasharray:none;stroke-opacity:1"
           d="m -11.939142,118.42144 c 0,0 5.159714,19.13525 -1.668872,25.56651"
           id="path1754" />
        <path
           style="fill:none;stroke:#666666;stroke-width:2.05825;stroke-linecap:butt;stroke-linejoin:miter;stroke-miterlimit:4;stroke-dasharray:none;stroke-opacity:1"
           d="m -37.505648,116.75257 c 0,0 5.159714,19.13525 -1.668872,25.56651"
           id="path1756" />
        <path
           style="fill:none;stroke:#666666;stroke-width:2.05825;stroke-linecap:butt;stroke-linejoin:miter;stroke-miterlimit:4;stroke-dasharray:none;stroke-opacity:1"
           d="m -37.505648,116.75257 c 0,0 19.135246,-5.15972 25.566506,1.66887"
           id="path1760" />
        <path
           style="fill:none;stroke:#666666;stroke-width:2.05825;stroke-linecap:butt;stroke-linejoin:miter;stroke-miterlimit:4;stroke-dasharray:none;stroke-opacity:1"
           d="m -39.17452,142.31908 c 0,0 19.135246,-5.15972 25.566506,1.66887"
           id="path1750" />
      </g>
    </g>
    <path
       id="path1804"
       style="color:#000000;font-style:normal;font-variant:normal;font-weight:normal;font-stretch:normal;font-size:medium;line-height:normal;font-family:sans-serif;font-variant-ligatures:normal;font-variant-position:normal;font-variant-caps:normal;font-variant-numeric:normal;font-variant-alternates:normal;font-variant-east-asian:normal;font-feature-settings:normal;font-variation-settings:normal;text-indent:0;text-align:start;text-decoration:none;text-decoration-line:none;text-decoration-style:solid;text-decoration-color:#000000;letter-spacing:normal;word-spacing:normal;text-transform:none;writing-mode:lr-tb;direction:ltr;text-orientation:mixed;dominant-baseline:auto;baseline-shift:baseline;text-anchor:start;white-space:normal;shape-padding:0;shape-margin:0;inline-size:0;clip-rule:nonzero;display:inline;overflow:visible;visibility:visible;isolation:auto;mix-blend-mode:normal;color-interpolation:sRGB;color-interpolation-filters:linearRGB;solid-color:#000000;solid-opacity:1;vector-effect:none;fill:#666666;fill-opacity:1;fill-rule:nonzero;stroke:none;stroke-width:1;stroke-linecap:butt;stroke-linejoin:miter;stroke-miterlimit:4;stroke-dasharray:none;stroke-dashoffset:0;stroke-opacity:1;color-rendering:auto;image-rendering:auto;shape-rendering:auto;text-rendering:auto;enable-background:accumulate;stop-color:#000000"
       d="m 76.591703,85.038214 v 0.439767 c 4.114466,0 8.020375,0.09364 11.736752,0.256315 a 7.876614,6.8686266 0 0 1 0.134874,-0.432533 C 84.705455,85.135271 80.755279,85.038214 76.591703,85.038214 Z M 103.80813,86.4619 a 7.876614,6.8686266 0 0 1 0.047,0.44545 c 22.82927,2.496126 34.67179,7.388696 34.67179,7.388696 l 0.16795,-0.406176 c 0,0 -11.93445,-4.925927 -34.88676,-7.42797 z" />
  </g>
</svg>
