<?xml version="1.0" encoding="UTF-8" standalone="no"?>
<svg
   xmlns:dc="http://purl.org/dc/elements/1.1/"
   xmlns:cc="http://creativecommons.org/ns#"
   xmlns:rdf="http://www.w3.org/1999/02/22-rdf-syntax-ns#"
   xmlns:svg="http://www.w3.org/2000/svg"
   xmlns="http://www.w3.org/2000/svg"
   xmlns:sodipodi="http://sodipodi.sourceforge.net/DTD/sodipodi-0.dtd"
   xmlns:inkscape="http://www.inkscape.org/namespaces/inkscape"
   width="266.38855"
   height="266.38855"
   viewBox="0 0 70.481969 70.481972"
   version="1.1"
   id="svg1889"
   inkscape:version="1.0.2 (e86c870879, 2021-01-15)"
   sodipodi:docname="website.svg">
  <defs
     id="defs1883" />
  <sodipodi:namedview
     id="base"
     pagecolor="#ffffff"
     bordercolor="#666666"
     borderopacity="1.0"
     inkscape:pageopacity="0.0"
     inkscape:pageshadow="2"
     inkscape:zoom="0.98994949"
     inkscape:cx="68.228777"
     inkscape:cy="198.64975"
     inkscape:document-units="mm"
     inkscape:current-layer="layer1"
     inkscape:document-rotation="0"
     showgrid="false"
     fit-margin-top="5"
     units="px"
     lock-margins="true"
     fit-margin-left="5"
     fit-margin-right="5"
     fit-margin-bottom="5"
     inkscape:window-width="1920"
     inkscape:window-height="983"
     inkscape:window-x="0"
     inkscape:window-y="27"
     inkscape:window-maximized="1" />
  <metadata
     id="metadata1886">
    <rdf:RDF>
      <cc:Work
         rdf:about="">
        <dc:format>image/svg+xml</dc:format>
        <dc:type
           rdf:resource="http://purl.org/dc/dcmitype/StillImage" />
        <dc:title></dc:title>
      </cc:Work>
    </rdf:RDF>
  </metadata>
  <g
     inkscape:label="Layer 1"
     inkscape:groupmode="layer"
     id="layer1"
     transform="translate(-74.109586,-74.109586)">
    <g
       id="g2482">
      <g
         id="g2473">
        <rect
           style="fill:none;stroke:none;stroke-width:0.865"
           id="rect2452"
           width="67.836136"
           height="67.836136"
           x="75.432503"
           y="75.432503"
           ry="1.2826101" />
        <g
           aria-label=".Com"
           id="text2456"
           style="font-style:normal;font-variant:normal;font-weight:bold;font-stretch:normal;font-size:10.5833px;line-height:1.25;font-family:'Nimbus Mono PS';-inkscape-font-specification:'Nimbus Mono PS, Bold';font-variant-ligatures:normal;font-variant-caps:normal;font-variant-numeric:normal;font-variant-east-asian:normal;fill:#666666;fill-opacity:1;stroke:none;stroke-width:0.264583"
           transform="matrix(1.8791133,0,0,1.8791133,162.44567,-27.133747)">
          <path
             d="m -40.108011,75.970333 c 0.412749,0 0.740831,-0.306916 0.740831,-0.709081 0,-0.391583 -0.328082,-0.709082 -0.740831,-0.709082 h -0.190499 c -0.402165,0 -0.740831,0.317499 -0.740831,0.709082 0,0.391582 0.328082,0.709081 0.740831,0.709081 z"
             style="font-style:normal;font-variant:normal;font-weight:bold;font-stretch:normal;font-size:10.5833px;font-family:'Nimbus Mono PS';-inkscape-font-specification:'Nimbus Mono PS, Bold';font-variant-ligatures:normal;font-variant-caps:normal;font-variant-numeric:normal;font-variant-east-asian:normal;fill:#666666;stroke-width:0.264583"
             id="path2458" />
          <path
             d="m -36.721371,73.271591 c 0,1.555745 1.333496,2.688158 3.153824,2.688158 0.77258,0 1.502828,-0.190499 1.968493,-0.507998 0.380999,-0.264583 0.582082,-0.529165 0.582082,-0.772581 0,-0.296332 -0.264583,-0.550331 -0.571498,-0.550331 -0.148167,0 -0.28575,0.05292 -0.412749,0.179916 -0.275166,0.264582 -0.275166,0.264582 -0.380999,0.328082 -0.275166,0.148166 -0.677331,0.232832 -1.15358,0.232832 -1.248829,0 -2.042576,-0.634998 -2.042576,-1.619244 v -0.645582 c 0,-1.05833 0.761997,-1.809744 1.820327,-1.809744 0.359832,0 0.719665,0.08467 1.005414,0.243416 0.296332,0.15875 0.402165,0.275166 0.444498,0.507998 0.07408,0.412749 0.232833,0.571499 0.560915,0.571499 0.179916,0 0.349249,-0.08467 0.465665,-0.22225 0.08467,-0.105833 0.105833,-0.222249 0.105833,-0.486832 v -0.846663 c 0,-0.264583 -0.01058,-0.349249 -0.08467,-0.455082 -0.105833,-0.15875 -0.285749,-0.254 -0.486832,-0.254 -0.190499,0 -0.317499,0.0635 -0.455082,0.232833 -0.730247,-0.317499 -1.005413,-0.380999 -1.598078,-0.380999 -1.661578,0 -2.920991,1.24883 -2.920991,2.889241 z"
             style="font-style:normal;font-variant:normal;font-weight:bold;font-stretch:normal;font-size:10.5833px;font-family:'Nimbus Mono PS';-inkscape-font-specification:'Nimbus Mono PS, Bold';font-variant-ligatures:normal;font-variant-caps:normal;font-variant-numeric:normal;font-variant-east-asian:normal;fill:#666666;stroke-width:0.264583"
             id="path2460" />
          <path
             d="m -27.471583,71.197265 c -1.587495,0 -2.804574,1.037163 -2.804574,2.391825 0,1.344079 1.217079,2.391826 2.772824,2.391826 1.555745,0 2.772825,-1.047747 2.772825,-2.391826 0,-1.333496 -1.21708,-2.391825 -2.741075,-2.391825 z m -0.05292,1.090079 c 0.941914,0 1.650995,0.560915 1.650995,1.301746 0,0.730248 -0.709081,1.301746 -1.629828,1.301746 -0.920747,0 -1.629828,-0.571498 -1.629828,-1.301746 0,-0.730247 0.709081,-1.301746 1.608661,-1.301746 z"
             style="font-style:normal;font-variant:normal;font-weight:bold;font-stretch:normal;font-size:10.5833px;font-family:'Nimbus Mono PS';-inkscape-font-specification:'Nimbus Mono PS, Bold';font-variant-ligatures:normal;font-variant-caps:normal;font-variant-numeric:normal;font-variant-east-asian:normal;fill:#666666;stroke-width:0.264583"
             id="path2462" />
          <path
             d="m -22.793781,71.324264 h -1.02658 c -0.22225,0 -0.296333,0.01058 -0.391582,0.04233 -0.201083,0.0635 -0.359832,0.285749 -0.359832,0.507999 0,0.169332 0.08467,0.338665 0.232832,0.444498 0.09525,0.0635 0.169333,0.08467 0.402165,0.09525 v 2.317743 c -0.391582,0 -0.634997,0.211666 -0.634997,0.539748 0,0.359832 0.253999,0.550331 0.751414,0.550331 h 0.93133 c 0.486832,0 0.740831,-0.190499 0.740831,-0.550331 0,-0.169333 -0.08467,-0.338666 -0.232832,-0.444499 -0.105833,-0.0635 -0.179917,-0.08467 -0.412749,-0.09525 v -2.021411 c 0.306916,-0.328082 0.486832,-0.423332 0.772581,-0.423332 0.232832,0 0.317499,0.09525 0.317499,0.349249 v 3.185573 h 1.037163 c 0.486832,0 0.740831,-0.179916 0.740831,-0.550331 0,-0.169333 -0.08467,-0.338666 -0.232833,-0.444499 -0.105833,-0.0635 -0.179916,-0.08467 -0.402165,-0.09525 v -2.021411 c 0.338666,-0.338665 0.497415,-0.423332 0.772581,-0.423332 0.243416,0 0.317499,0.08467 0.317499,0.349249 v 3.185573 h 1.037163 c 0.486832,0 0.740831,-0.179916 0.740831,-0.550331 0,-0.169333 -0.08467,-0.338666 -0.232832,-0.444499 -0.105833,-0.0635 -0.179916,-0.08467 -0.402166,-0.09525 v -2.18016 c 0,-0.783164 -0.603248,-1.354662 -1.439328,-1.354662 -0.423332,0 -0.772581,0.148166 -1.09008,0.476248 -0.296333,-0.306916 -0.666748,-0.476248 -1.079497,-0.476248 -0.317499,0 -0.518582,0.07408 -0.857247,0.328082 z"
             style="font-style:normal;font-variant:normal;font-weight:bold;font-stretch:normal;font-size:10.5833px;font-family:'Nimbus Mono PS';-inkscape-font-specification:'Nimbus Mono PS, Bold';font-variant-ligatures:normal;font-variant-caps:normal;font-variant-numeric:normal;font-variant-east-asian:normal;fill:#666666;stroke-width:0.264583"
             id="path2464" />
        </g>
      </g>
    </g>
  </g>
</svg>
